<svg width="77" height="97" viewBox="0 0 77 97" fill="none" xmlns="http://www.w3.org/2000/svg">
<path d="M74.9665 11.2764C75.7396 5.57464 71.3066 0.5 65.5526 0.5H23.4363C18.7172 0.5 14.7135 3.96412 14.035 8.63424L4.15639 76.6342C3.32396 82.3644 7.76743 87.5 13.5577 87.5H56.3326C61.086 87.5 65.1078 83.9867 65.7464 79.2764L74.9665 11.2764Z" fill="url(#paint0_linear_1234_8967)" stroke="white"/>
<path d="M72.9665 11.2764C73.7396 5.57464 69.3066 0.5 63.5526 0.5H21.4363C16.7172 0.5 12.7135 3.96412 12.035 8.63424L2.15639 76.6342C1.32396 82.3644 5.76743 87.5 11.5577 87.5H54.3326C59.086 87.5 63.1078 83.9867 63.7464 79.2764L72.9665 11.2764Z" fill="url(#paint1_linear_1234_8967)" stroke="url(#paint2_linear_1234_8967)"/>
<path d="M57.5 38C57.5 41.9549 55.4173 45.5691 51.9837 48.2103C48.5496 50.8519 43.784 52.5 38.5 52.5C33.216 52.5 28.4504 50.8519 25.0163 48.2103C21.5827 45.5691 19.5 41.9549 19.5 38C19.5 34.0451 21.5827 30.4309 25.0163 27.7897C28.4504 25.1481 33.216 23.5 38.5 23.5C43.784 23.5 48.5496 25.1481 51.9837 27.7897C55.4173 30.4309 57.5 34.0451 57.5 38Z" stroke="url(#paint3_linear_1234_8967)" stroke-linejoin="round"/>
<path d="M49 58.7218L64.6907 58.7217" stroke="url(#paint4_linear_1234_8967)"/>
<path d="M12 20.6777L26.7231 20.6777" stroke="url(#paint5_linear_1234_8967)"/>
<path d="M17 17.4395L26.5556 17.4395" stroke="url(#paint6_linear_1234_8967)"/>
<path d="M49 55.46L59 55.4597" stroke="url(#paint7_linear_1234_8967)"/>
<path d="M31.3143 36.0836L31.395 36.0836C31.8298 36.0833 32.2583 35.9441 32.6264 35.6781C32.9952 35.4117 33.288 35.029 33.4622 34.5743C33.6364 34.1194 33.6824 33.617 33.5929 33.1319C33.5034 32.647 33.2836 32.2064 32.9665 31.8642C32.6499 31.5224 32.2513 31.2946 31.8235 31.2028C31.3962 31.1111 30.9529 31.1579 30.5476 31.3392C30.1418 31.5208 29.7887 31.8312 29.5375 32.2373C29.2862 32.6436 29.15 33.1249 29.15 33.6202L31.3143 36.0836ZM31.3143 36.0836C30.7605 36.0614 30.226 35.8141 29.8212 35.3769C29.3955 34.9171 29.1502 34.2859 29.15 33.6203L31.3143 36.0836ZM42.2005 41.009L42.1611 41.0327C42.0955 41.0652 42.0384 41.0658 41.9605 41.0389C41.8431 40.9985 41.6787 40.8905 41.4682 40.6726L40.3479 39.5131L40.6155 41.103C40.6939 41.5685 40.7398 42.0723 40.7398 42.6004C40.7398 43.7858 40.5242 44.8341 40.1978 45.5673C40.0343 45.9347 39.8528 46.201 39.677 46.3687C39.5034 46.5342 39.3601 46.5824 39.2508 46.5824C39.1575 46.5824 39.0533 46.5491 38.9276 46.328C38.7911 46.0878 38.6806 45.7012 38.6053 45.1665L37.615 45.1666C37.5392 45.7055 37.4287 46.0913 37.2924 46.3298C37.1681 46.5472 37.0638 46.5824 36.9648 46.5824C36.8538 46.5824 36.7101 46.5337 36.537 46.3687C36.3614 46.2013 36.1804 45.9354 36.0175 45.5682C35.6922 44.8352 35.4781 43.7868 35.4781 42.6004L35.4781 42.6C35.4777 42.0975 35.5191 41.596 35.6018 41.1016L35.8682 39.5077L34.7482 40.6727C34.5403 40.8888 34.3767 40.9957 34.2597 41.0358C34.1685 41.0671 34.1051 41.0609 34.0252 41.0118L34.0252 41.0117L34.0202 41.0087C33.796 40.8745 33.5744 40.4438 33.622 39.5823C33.6669 38.7688 33.951 37.7418 34.4814 36.7101L34.4815 36.71C34.8544 35.9841 35.2913 35.3791 35.7321 34.9192C36.4439 35.3841 37.2654 35.6354 38.1097 35.6374L38.1126 35.6374C38.9555 35.6345 39.7755 35.3832 40.486 34.9191C40.9273 35.3791 41.3649 35.9835 41.7361 36.7092L41.7365 36.7099C42.2666 37.7422 42.5509 38.7693 42.5964 39.583C42.6445 40.4447 42.4235 40.8751 42.2005 41.009ZM33.1184 42.5996L33.4385 42.7917C33.4569 42.9908 33.468 43.1935 33.468 43.4019C33.468 44.365 33.2925 45.2125 33.0308 45.8005C32.8996 46.0952 32.7566 46.3029 32.6233 46.43C32.4923 46.5549 32.3956 46.5807 32.3352 46.5807C32.2999 46.5807 32.2398 46.5801 32.1471 46.4173C32.0434 46.2352 31.9544 45.9313 31.8927 45.4953L30.9025 45.496C30.8412 45.934 30.7522 46.2368 30.6488 46.4173C30.5572 46.5772 30.4969 46.5798 30.457 46.5798C30.3946 46.5798 30.2975 46.5535 30.167 46.4292C30.0339 46.3024 29.8913 46.0953 29.7606 45.8008C29.4999 45.2133 29.3258 44.3658 29.3258 43.4014C29.3264 42.993 29.3596 42.5855 29.4248 42.1835L29.6814 40.6016L28.5708 41.7569C28.4047 41.9297 28.2821 42.0061 28.2055 42.0323C28.1721 42.0438 28.1534 42.0436 28.1441 42.0427C28.1357 42.0418 28.1187 42.0387 28.0898 42.0209L28.0898 42.0208L28.0831 42.0168C27.9462 41.9349 27.7621 41.6302 27.8007 40.9292C27.8367 40.2764 28.0652 39.4456 28.4956 38.6075C28.7851 38.0449 29.1197 37.5743 29.4575 37.2112C30.0238 37.565 30.6832 37.7763 31.3961 37.7763L31.3981 37.7763C31.661 37.7752 31.9218 37.7451 32.1763 37.6873C31.9208 38.5571 31.8106 39.3943 31.8566 40.1367C31.9208 41.1715 32.2996 42.108 33.1184 42.5996ZM44.8077 36.0838L44.7782 36.0848C44.212 36.0721 43.6634 35.8239 43.25 35.3775C42.8242 34.9178 42.579 34.2866 42.5789 33.6211C42.5788 32.9556 42.8239 32.3243 43.2495 31.8645C43.672 31.408 44.2359 31.1586 44.8156 31.1563C45.3841 31.1764 45.932 31.434 46.3408 31.8886C46.7526 32.3465 46.9885 32.9671 46.9885 33.6199C46.9885 34.2728 46.7526 34.8933 46.3408 35.3513C45.9301 35.808 45.379 36.0658 44.8077 36.0838ZM44.3743 39.4757C44.3437 38.9041 44.2298 38.2986 44.0483 37.688C44.2979 37.7448 44.5574 37.7755 44.825 37.7755L44.8267 37.7755C45.5117 37.7731 46.1783 37.5761 46.7612 37.2119C47.0994 37.5754 47.434 38.0459 47.722 38.6083L47.7217 38.6085C48.1521 39.4458 48.381 40.2762 48.4174 40.9291C48.4564 41.6301 48.2728 41.9357 48.1355 42.0182L48.1355 42.0181L48.1291 42.0221C48.0997 42.0404 48.0826 42.0434 48.0744 42.0443C48.0654 42.0452 48.0469 42.0453 48.0135 42.0338C47.9366 42.0073 47.8134 41.9302 47.6453 41.7557L46.5247 40.5922L46.7921 42.1853C46.8558 42.5653 46.8945 42.9738 46.8945 43.4019C46.8945 44.3649 46.7187 45.2123 46.4568 45.8004C46.3256 46.0952 46.1824 46.3029 46.0491 46.43C45.918 46.5551 45.8216 46.5807 45.7617 46.5807C45.7251 46.5807 45.6648 46.5794 45.5725 46.4173C45.4689 46.2355 45.3803 45.932 45.3194 45.4961L44.329 45.4961C44.2677 45.9345 44.1788 46.2375 44.0753 46.4181C43.9837 46.578 43.9234 46.5807 43.8836 46.5807C43.8213 46.5807 43.7241 46.5543 43.5936 46.43C43.4606 46.3031 43.3179 46.0959 43.1872 45.8012C42.9265 45.2133 42.7523 44.3653 42.7523 43.4002C42.7523 43.1792 42.7646 42.9641 42.7851 42.7527C42.8916 42.7118 42.9947 42.6618 43.0933 42.603L43.0941 42.6025C44.0643 42.0223 44.4523 40.8412 44.3743 39.4757ZM39.2054 33.5756C38.8584 33.726 38.4888 33.7997 38.1174 33.7937C37.3838 33.7819 36.6752 33.4591 36.1476 32.8809C35.6189 32.3015 35.3166 31.5132 35.3163 30.6848C35.3161 29.8563 35.6178 29.0678 36.1462 28.488C36.6735 27.9094 37.3818 27.586 38.1155 27.5736C38.4868 27.5673 38.8565 27.6408 39.2035 27.7909C39.5507 27.941 39.8694 28.1654 40.14 28.453C40.4107 28.7407 40.6276 29.0857 40.7763 29.469C40.925 29.8523 41.0021 30.2649 41.0023 30.6825C41.0024 31.1002 40.9256 31.5129 40.7771 31.8963C40.6286 32.2797 40.4119 32.6249 40.1414 32.9128C39.871 33.2006 39.5525 33.4252 39.2054 33.5756Z" fill="#E6E6E6" stroke="black"/>
<mask id="path-9-outside-1_1234_8967" maskUnits="userSpaceOnUse" x="16" y="65" width="38" height="15" fill="black">
<rect fill="white" x="16" y="65" width="38" height="15"/>
<path d="M17.5508 77C17.4258 77 17.3633 76.9375 17.3633 76.8125V75.3125C17.3633 75.1875 17.4258 75.125 17.5508 75.125H20.8958V73.0025H17.5508C17.4258 73.0025 17.3633 72.94 17.3633 72.815L17.3708 67.19C17.3708 67.065 17.4333 67.0025 17.5583 67.0025H23.2133C23.3383 67.0025 23.4008 67.065 23.4008 67.19V68.69C23.4008 68.815 23.3383 68.8775 23.2133 68.8775H19.8758V71H23.2133C23.3383 71 23.4008 71.0625 23.4008 71.1875V75.0875C23.4008 75.1775 23.3708 75.2575 23.3108 75.3275L21.7208 76.91C21.6658 76.97 21.5883 77 21.4883 77H17.5508ZM24.6884 78.35C24.5534 78.35 24.4859 78.2825 24.4859 78.1475V77.0975C24.4859 76.9675 24.5534 76.9025 24.6884 76.9025H25.2359C25.3859 76.9025 25.4609 76.84 25.4609 76.715V76.49H24.5009C24.3759 76.49 24.3134 76.4225 24.3134 76.2875L24.3284 74.39C24.3284 74.255 24.3934 74.1875 24.5234 74.1875H26.9009C27.0259 74.1875 27.0884 74.255 27.0884 74.39V76.685C27.0884 77.245 26.9559 77.6625 26.6909 77.9375C26.4259 78.2125 26.0709 78.35 25.6259 78.35H24.6884ZM29.3181 77C29.0331 77 28.8381 76.9425 28.7331 76.8275C28.6331 76.7075 28.5831 76.535 28.5831 76.31V67.7C28.5831 67.475 28.6331 67.305 28.7331 67.19C28.8381 67.07 29.0331 67.01 29.3181 67.01L34.4706 66.9875C34.7606 66.9875 34.9556 67.0475 35.0556 67.1675C35.1556 67.2825 35.2056 67.4525 35.2056 67.6775V76.31C35.2056 76.535 35.1556 76.7075 35.0556 76.8275C34.9556 76.9425 34.7606 77 34.4706 77H29.3181ZM31.0806 75.125H32.7081V68.8625H31.0806V75.125ZM37.741 77C37.456 77 37.261 76.9425 37.156 76.8275C37.056 76.7075 37.006 76.535 37.006 76.31V67.7C37.006 67.475 37.056 67.305 37.156 67.19C37.261 67.07 37.456 67.01 37.741 67.01L42.8935 66.9875C43.1835 66.9875 43.3785 67.0475 43.4785 67.1675C43.5785 67.2825 43.6285 67.4525 43.6285 67.6775V76.31C43.6285 76.535 43.5785 76.7075 43.4785 76.8275C43.3785 76.9425 43.1835 77 42.8935 77H37.741ZM39.5035 75.125H41.131V68.8625H39.5035V75.125ZM46.1638 77C45.8788 77 45.6838 76.9425 45.5788 76.8275C45.4788 76.7075 45.4288 76.535 45.4288 76.31V67.7C45.4288 67.475 45.4788 67.305 45.5788 67.19C45.6838 67.07 45.8788 67.01 46.1638 67.01L51.3163 66.9875C51.6063 66.9875 51.8013 67.0475 51.9013 67.1675C52.0013 67.2825 52.0513 67.4525 52.0513 67.6775V76.31C52.0513 76.535 52.0013 76.7075 51.9013 76.8275C51.8013 76.9425 51.6063 77 51.3163 77H46.1638ZM47.9263 75.125H49.5538V68.8625H47.9263V75.125Z"/>
</mask>
<path d="M17.5508 77C17.4258 77 17.3633 76.9375 17.3633 76.8125V75.3125C17.3633 75.1875 17.4258 75.125 17.5508 75.125H20.8958V73.0025H17.5508C17.4258 73.0025 17.3633 72.94 17.3633 72.815L17.3708 67.19C17.3708 67.065 17.4333 67.0025 17.5583 67.0025H23.2133C23.3383 67.0025 23.4008 67.065 23.4008 67.19V68.69C23.4008 68.815 23.3383 68.8775 23.2133 68.8775H19.8758V71H23.2133C23.3383 71 23.4008 71.0625 23.4008 71.1875V75.0875C23.4008 75.1775 23.3708 75.2575 23.3108 75.3275L21.7208 76.91C21.6658 76.97 21.5883 77 21.4883 77H17.5508ZM24.6884 78.35C24.5534 78.35 24.4859 78.2825 24.4859 78.1475V77.0975C24.4859 76.9675 24.5534 76.9025 24.6884 76.9025H25.2359C25.3859 76.9025 25.4609 76.84 25.4609 76.715V76.49H24.5009C24.3759 76.49 24.3134 76.4225 24.3134 76.2875L24.3284 74.39C24.3284 74.255 24.3934 74.1875 24.5234 74.1875H26.9009C27.0259 74.1875 27.0884 74.255 27.0884 74.39V76.685C27.0884 77.245 26.9559 77.6625 26.6909 77.9375C26.4259 78.2125 26.0709 78.35 25.6259 78.35H24.6884ZM29.3181 77C29.0331 77 28.8381 76.9425 28.7331 76.8275C28.6331 76.7075 28.5831 76.535 28.5831 76.31V67.7C28.5831 67.475 28.6331 67.305 28.7331 67.19C28.8381 67.07 29.0331 67.01 29.3181 67.01L34.4706 66.9875C34.7606 66.9875 34.9556 67.0475 35.0556 67.1675C35.1556 67.2825 35.2056 67.4525 35.2056 67.6775V76.31C35.2056 76.535 35.1556 76.7075 35.0556 76.8275C34.9556 76.9425 34.7606 77 34.4706 77H29.3181ZM31.0806 75.125H32.7081V68.8625H31.0806V75.125ZM37.741 77C37.456 77 37.261 76.9425 37.156 76.8275C37.056 76.7075 37.006 76.535 37.006 76.31V67.7C37.006 67.475 37.056 67.305 37.156 67.19C37.261 67.07 37.456 67.01 37.741 67.01L42.8935 66.9875C43.1835 66.9875 43.3785 67.0475 43.4785 67.1675C43.5785 67.2825 43.6285 67.4525 43.6285 67.6775V76.31C43.6285 76.535 43.5785 76.7075 43.4785 76.8275C43.3785 76.9425 43.1835 77 42.8935 77H37.741ZM39.5035 75.125H41.131V68.8625H39.5035V75.125ZM46.1638 77C45.8788 77 45.6838 76.9425 45.5788 76.8275C45.4788 76.7075 45.4288 76.535 45.4288 76.31V67.7C45.4288 67.475 45.4788 67.305 45.5788 67.19C45.6838 67.07 45.8788 67.01 46.1638 67.01L51.3163 66.9875C51.6063 66.9875 51.8013 67.0475 51.9013 67.1675C52.0013 67.2825 52.0513 67.4525 52.0513 67.6775V76.31C52.0513 76.535 52.0013 76.7075 51.9013 76.8275C51.8013 76.9425 51.6063 77 51.3163 77H46.1638ZM47.9263 75.125H49.5538V68.8625H47.9263V75.125Z" fill="#FADD00"/>
<path d="M20.8958 75.125V76.125H21.8958V75.125H20.8958ZM20.8958 73.0025H21.8958V72.0025H20.8958V73.0025ZM17.3633 72.815L16.3633 72.8137V72.815H17.3633ZM17.3708 67.19L18.3708 67.1913V67.19H17.3708ZM19.8758 68.8775V67.8775H18.8758V68.8775H19.8758ZM19.8758 71H18.8758V72H19.8758V71ZM23.3108 75.3275L24.0163 76.0363L24.0443 76.0083L24.0701 75.9783L23.3108 75.3275ZM21.7208 76.91L21.0154 76.2012L20.9992 76.2174L20.9837 76.2343L21.7208 76.91ZM17.5508 76C17.6425 76 17.8949 76.0236 18.1173 76.246C18.3398 76.4684 18.3633 76.7209 18.3633 76.8125H16.3633C16.3633 77.0291 16.4182 77.3753 16.7031 77.6602C16.988 77.9452 17.3342 78 17.5508 78V76ZM18.3633 76.8125V75.3125H16.3633V76.8125H18.3633ZM18.3633 75.3125C18.3633 75.4041 18.3398 75.6566 18.1173 75.879C17.8949 76.1014 17.6425 76.125 17.5508 76.125V74.125C17.3342 74.125 16.988 74.1798 16.7031 74.4648C16.4182 74.7497 16.3633 75.0959 16.3633 75.3125H18.3633ZM17.5508 76.125H20.8958V74.125H17.5508V76.125ZM21.8958 75.125V73.0025H19.8958V75.125H21.8958ZM20.8958 72.0025H17.5508V74.0025H20.8958V72.0025ZM17.5508 72.0025C17.6425 72.0025 17.8949 72.0261 18.1173 72.2485C18.3398 72.4709 18.3633 72.7234 18.3633 72.815H16.3633C16.3633 73.0316 16.4182 73.3778 16.7031 73.6627C16.988 73.9477 17.3342 74.0025 17.5508 74.0025V72.0025ZM18.3633 72.8163L18.3708 67.1913L16.3708 67.1887L16.3633 72.8137L18.3633 72.8163ZM18.3708 67.19C18.3708 67.2816 18.3473 67.5341 18.1248 67.7565C17.9024 67.9789 17.65 68.0025 17.5583 68.0025V66.0025C17.3417 66.0025 16.9955 66.0573 16.7106 66.3423C16.4257 66.6272 16.3708 66.9734 16.3708 67.19H18.3708ZM17.5583 68.0025H23.2133V66.0025H17.5583V68.0025ZM23.2133 68.0025C23.1217 68.0025 22.8693 67.9789 22.6469 67.7565C22.4244 67.5341 22.4008 67.2816 22.4008 67.19H24.4008C24.4008 66.9734 24.346 66.6272 24.0611 66.3423C23.7761 66.0573 23.43 66.0025 23.2133 66.0025V68.0025ZM22.4008 67.19V68.69H24.4008V67.19H22.4008ZM22.4008 68.69C22.4008 68.5984 22.4244 68.3459 22.6469 68.1235C22.8693 67.9011 23.1217 67.8775 23.2133 67.8775V69.8775C23.43 69.8775 23.7761 69.8227 24.0611 69.5377C24.346 69.2528 24.4008 68.9066 24.4008 68.69H22.4008ZM23.2133 67.8775H19.8758V69.8775H23.2133V67.8775ZM18.8758 68.8775V71H20.8758V68.8775H18.8758ZM19.8758 72H23.2133V70H19.8758V72ZM23.2133 72C23.1217 72 22.8693 71.9764 22.6469 71.754C22.4244 71.5316 22.4008 71.2791 22.4008 71.1875H24.4008C24.4008 70.9709 24.346 70.6247 24.0611 70.3398C23.7761 70.0548 23.43 70 23.2133 70V72ZM22.4008 71.1875V75.0875H24.4008V71.1875H22.4008ZM22.4008 75.0875C22.4008 75.0191 22.4127 74.9421 22.442 74.8639C22.4712 74.786 22.5115 74.7234 22.5516 74.6767L24.0701 75.9783C24.2813 75.7319 24.4008 75.4225 24.4008 75.0875H22.4008ZM22.6054 74.6187L21.0154 76.2012L22.4263 77.6188L24.0163 76.0363L22.6054 74.6187ZM20.9837 76.2343C21.0624 76.1484 21.1589 76.0843 21.2605 76.0449C21.3577 76.0073 21.4393 76 21.4883 76V78C21.7996 78 22.1715 77.8983 22.458 77.5857L20.9837 76.2343ZM21.4883 76H17.5508V78H21.4883V76ZM25.4609 76.49H26.4609V75.49H25.4609V76.49ZM24.3134 76.2875L23.3134 76.2796V76.2875H24.3134ZM24.3284 74.39L25.3284 74.3979V74.39H24.3284ZM26.6909 77.9375L25.9708 77.2436L26.6909 77.9375ZM24.6884 77.35C24.775 77.35 25.0237 77.3723 25.2436 77.5923C25.4635 77.8122 25.4859 78.0609 25.4859 78.1475H23.4859C23.4859 78.3691 23.542 78.7191 23.8294 79.0065C24.1168 79.2939 24.4667 79.35 24.6884 79.35V77.35ZM25.4859 78.1475V77.0975H23.4859V78.1475H25.4859ZM25.4859 77.0975C25.4859 77.1964 25.4582 77.452 25.2301 77.6716C25.0092 77.8844 24.7658 77.9025 24.6884 77.9025V75.9025C24.476 75.9025 24.1314 75.9531 23.8429 76.2309C23.5473 76.5155 23.4859 76.8686 23.4859 77.0975H25.4859ZM24.6884 77.9025H25.2359V75.9025H24.6884V77.9025ZM25.2359 77.9025C25.4251 77.9025 25.7532 77.8668 26.0448 77.6238C26.3713 77.3517 26.4609 76.9844 26.4609 76.715H24.4609C24.4609 76.5706 24.5129 76.297 24.7644 76.0874C24.981 75.9069 25.1966 75.9025 25.2359 75.9025V77.9025ZM26.4609 76.715V76.49H24.4609V76.715H26.4609ZM25.4609 75.49H24.5009V77.49H25.4609V75.49ZM24.5009 75.49C24.6131 75.49 24.8754 75.5239 25.094 75.76C25.2991 75.9815 25.3134 76.2191 25.3134 76.2875H23.3134C23.3134 76.4909 23.3589 76.8297 23.6265 77.1188C23.9076 77.4224 24.2636 77.49 24.5009 77.49V75.49ZM25.3133 76.2954L25.3283 74.3979L23.3284 74.3821L23.3134 76.2796L25.3133 76.2954ZM25.3284 74.39C25.3284 74.4674 25.3103 74.7108 25.0974 74.9318C24.8779 75.1598 24.6223 75.1875 24.5234 75.1875V73.1875C24.2944 73.1875 23.9414 73.249 23.6568 73.5445C23.379 73.833 23.3284 74.1776 23.3284 74.39H25.3284ZM24.5234 75.1875H26.9009V73.1875H24.5234V75.1875ZM26.9009 75.1875C26.7886 75.1875 26.5263 75.1536 26.3077 74.9175C26.1026 74.696 26.0884 74.4584 26.0884 74.39H28.0884C28.0884 74.1866 28.0429 73.8478 27.7753 73.5587C27.4942 73.2551 27.1381 73.1875 26.9009 73.1875V75.1875ZM26.0884 74.39V76.685H28.0884V74.39H26.0884ZM26.0884 76.685C26.0884 77.1059 25.9875 77.2263 25.9708 77.2436L27.411 78.6314C27.9243 78.0987 28.0884 77.3841 28.0884 76.685H26.0884ZM25.9708 77.2436C25.9256 77.2905 25.848 77.35 25.6259 77.35V79.35C26.2938 79.35 26.9261 79.1345 27.411 78.6314L25.9708 77.2436ZM25.6259 77.35H24.6884V79.35H25.6259V77.35ZM28.7331 76.8275L27.9649 77.4677L27.9794 77.4851L27.9946 77.5018L28.7331 76.8275ZM28.7331 67.19L27.9805 66.5315L27.9785 66.5338L28.7331 67.19ZM29.3181 67.01V68.01L29.3225 68.01L29.3181 67.01ZM34.4706 66.9875V65.9875L34.4662 65.9875L34.4706 66.9875ZM35.0556 67.1675L34.2874 67.8077L34.2941 67.8158L34.301 67.8237L35.0556 67.1675ZM35.0556 76.8275L35.8102 77.4837L35.8171 77.4758L35.8238 77.4677L35.0556 76.8275ZM31.0806 75.125H30.0806V76.125H31.0806V75.125ZM32.7081 75.125V76.125H33.7081V75.125H32.7081ZM32.7081 68.8625H33.7081V67.8625H32.7081V68.8625ZM31.0806 68.8625V67.8625H30.0806V68.8625H31.0806ZM29.3181 76C29.2361 76 29.218 75.9909 29.2409 75.9977C29.2662 76.0051 29.3689 76.0407 29.4716 76.1532L27.9946 77.5018C28.3967 77.9422 28.9664 78 29.3181 78V76ZM29.5013 76.1873C29.552 76.2481 29.5734 76.3031 29.5811 76.3297C29.5879 76.3534 29.5831 76.351 29.5831 76.31H27.5831C27.5831 76.6681 27.6613 77.1033 27.9649 77.4677L29.5013 76.1873ZM29.5831 76.31V67.7H27.5831V76.31H29.5831ZM29.5831 67.7C29.5831 67.6586 29.588 67.6585 29.58 67.6859C29.571 67.7166 29.5462 67.7789 29.4877 67.8462L27.9785 66.5338C27.6597 66.9005 27.5831 67.3458 27.5831 67.7H29.5831ZM29.4857 67.8485C29.3861 67.9623 29.2832 68.0012 29.2522 68.0108C29.225 68.0191 29.2389 68.01 29.3181 68.01V66.01C28.9571 66.01 28.3808 66.0741 27.9805 66.5315L29.4857 67.8485ZM29.3225 68.01L34.475 67.9875L34.4662 65.9875L29.3137 66.01L29.3225 68.01ZM34.4706 67.9875C34.5543 67.9875 34.5688 67.9971 34.5403 67.9883C34.5083 67.9785 34.3943 67.9359 34.2874 67.8077L35.8238 66.5273C35.4223 66.0455 34.8221 65.9875 34.4706 65.9875V67.9875ZM34.301 67.8237C34.2425 67.7564 34.2178 67.6941 34.2087 67.6634C34.2007 67.636 34.2056 67.6361 34.2056 67.6775H36.2056C36.2056 67.3233 36.129 66.878 35.8102 66.5113L34.301 67.8237ZM34.2056 67.6775V76.31H36.2056V67.6775H34.2056ZM34.2056 76.31C34.2056 76.351 34.2008 76.3534 34.2076 76.3297C34.2153 76.3031 34.2367 76.2481 34.2874 76.1873L35.8238 77.4677C36.1274 77.1033 36.2056 76.6681 36.2056 76.31H34.2056ZM34.301 76.1713C34.4115 76.0443 34.5257 76.0053 34.5515 75.9977C34.5758 75.9906 34.557 76 34.4706 76V78C34.8126 78 35.4063 77.9482 35.8102 77.4837L34.301 76.1713ZM34.4706 76H29.3181V78H34.4706V76ZM31.0806 76.125H32.7081V74.125H31.0806V76.125ZM33.7081 75.125V68.8625H31.7081V75.125H33.7081ZM32.7081 67.8625H31.0806V69.8625H32.7081V67.8625ZM30.0806 68.8625V75.125H32.0806V68.8625H30.0806ZM37.156 76.8275L36.3877 77.4677L36.4022 77.4851L36.4175 77.5018L37.156 76.8275ZM37.156 67.19L36.4034 66.5315L36.4014 66.5338L37.156 67.19ZM37.741 67.01V68.01L37.7453 68.01L37.741 67.01ZM42.8935 66.9875V65.9875L42.8891 65.9875L42.8935 66.9875ZM43.4785 67.1675L42.7102 67.8077L42.717 67.8158L42.7239 67.8237L43.4785 67.1675ZM43.4785 76.8275L44.2331 77.4837L44.24 77.4758L44.2467 77.4677L43.4785 76.8275ZM39.5035 75.125H38.5035V76.125H39.5035V75.125ZM41.131 75.125V76.125H42.131V75.125H41.131ZM41.131 68.8625H42.131V67.8625H41.131V68.8625ZM39.5035 68.8625V67.8625H38.5035V68.8625H39.5035ZM37.741 76C37.659 76 37.6409 75.9909 37.6638 75.9977C37.689 76.0051 37.7917 76.0407 37.8944 76.1532L36.4175 77.5018C36.8196 77.9422 37.3893 78 37.741 78V76ZM37.9242 76.1873C37.9748 76.2481 37.9962 76.3031 38.0039 76.3297C38.0108 76.3534 38.006 76.351 38.006 76.31H36.006C36.006 76.6681 36.0841 77.1033 36.3877 77.4677L37.9242 76.1873ZM38.006 76.31V67.7H36.006V76.31H38.006ZM38.006 67.7C38.006 67.6586 38.0109 67.6585 38.0028 67.6859C37.9938 67.7166 37.9691 67.7789 37.9106 67.8462L36.4014 66.5338C36.0825 66.9005 36.006 67.3458 36.006 67.7H38.006ZM37.9085 67.8485C37.8089 67.9623 37.7061 68.0012 37.675 68.0108C37.6478 68.0191 37.6618 68.01 37.741 68.01V66.01C37.3799 66.01 36.8036 66.0741 36.4034 66.5315L37.9085 67.8485ZM37.7453 68.01L42.8978 67.9875L42.8891 65.9875L37.7366 66.01L37.7453 68.01ZM42.8935 67.9875C42.9771 67.9875 42.9917 67.9971 42.9631 67.9883C42.9312 67.9785 42.8171 67.9359 42.7102 67.8077L44.2467 66.5273C43.8452 66.0455 43.2449 65.9875 42.8935 65.9875V67.9875ZM42.7239 67.8237C42.6654 67.7564 42.6406 67.6941 42.6316 67.6634C42.6235 67.636 42.6285 67.6361 42.6285 67.6775H44.6285C44.6285 67.3233 44.5519 66.878 44.2331 66.5113L42.7239 67.8237ZM42.6285 67.6775V76.31H44.6285V67.6775H42.6285ZM42.6285 76.31C42.6285 76.351 42.6236 76.3534 42.6305 76.3297C42.6382 76.3031 42.6596 76.2481 42.7102 76.1873L44.2467 77.4677C44.5503 77.1033 44.6285 76.6681 44.6285 76.31H42.6285ZM42.7239 76.1713C42.8343 76.0443 42.9486 76.0053 42.9744 75.9977C42.9986 75.9906 42.9799 76 42.8935 76V78C43.2355 78 43.8291 77.9482 44.2331 77.4837L42.7239 76.1713ZM42.8935 76H37.741V78H42.8935V76ZM39.5035 76.125H41.131V74.125H39.5035V76.125ZM42.131 75.125V68.8625H40.131V75.125H42.131ZM41.131 67.8625H39.5035V69.8625H41.131V67.8625ZM38.5035 68.8625V75.125H40.5035V68.8625H38.5035ZM45.5788 76.8275L44.8106 77.4677L44.8251 77.4851L44.8403 77.5018L45.5788 76.8275ZM45.5788 67.19L44.8262 66.5315L44.8242 66.5338L45.5788 67.19ZM46.1638 67.01V68.01L46.1682 68.01L46.1638 67.01ZM51.3163 66.9875V65.9875L51.3119 65.9875L51.3163 66.9875ZM51.9013 67.1675L51.1331 67.8077L51.1398 67.8158L51.1467 67.8237L51.9013 67.1675ZM51.9013 76.8275L52.6559 77.4837L52.6628 77.4758L52.6695 77.4677L51.9013 76.8275ZM47.9263 75.125H46.9263V76.125H47.9263V75.125ZM49.5538 75.125V76.125H50.5538V75.125H49.5538ZM49.5538 68.8625H50.5538V67.8625H49.5538V68.8625ZM47.9263 68.8625V67.8625H46.9263V68.8625H47.9263ZM46.1638 76C46.0818 76 46.0637 75.9909 46.0866 75.9977C46.1119 76.0051 46.2146 76.0407 46.3173 76.1532L44.8403 77.5018C45.2425 77.9422 45.8121 78 46.1638 78V76ZM46.347 76.1873C46.3977 76.2481 46.4191 76.3031 46.4268 76.3297C46.4336 76.3534 46.4288 76.351 46.4288 76.31H44.4288C44.4288 76.6681 44.507 77.1033 44.8106 77.4677L46.347 76.1873ZM46.4288 76.31V67.7H44.4288V76.31H46.4288ZM46.4288 67.7C46.4288 67.6586 46.4337 67.6585 46.4257 67.6859C46.4167 67.7166 46.3919 67.7789 46.3334 67.8462L44.8242 66.5338C44.5054 66.9005 44.4288 67.3458 44.4288 67.7H46.4288ZM46.3314 67.8485C46.2318 67.9623 46.1289 68.0012 46.0979 68.0108C46.0707 68.0191 46.0847 68.01 46.1638 68.01V66.01C45.8028 66.01 45.2265 66.0741 44.8262 66.5315L46.3314 67.8485ZM46.1682 68.01L51.3207 67.9875L51.3119 65.9875L46.1594 66.01L46.1682 68.01ZM51.3163 67.9875C51.4 67.9875 51.4145 67.9971 51.386 67.9883C51.354 67.9785 51.24 67.9359 51.1331 67.8077L52.6695 66.5273C52.268 66.0455 51.6678 65.9875 51.3163 65.9875V67.9875ZM51.1467 67.8237C51.0882 67.7564 51.0635 67.6941 51.0544 67.6634C51.0464 67.636 51.0513 67.6361 51.0513 67.6775H53.0513C53.0513 67.3233 52.9748 66.878 52.6559 66.5113L51.1467 67.8237ZM51.0513 67.6775V76.31H53.0513V67.6775H51.0513ZM51.0513 76.31C51.0513 76.351 51.0465 76.3534 51.0533 76.3297C51.061 76.3031 51.0825 76.2481 51.1331 76.1873L52.6695 77.4677C52.9731 77.1033 53.0513 76.6681 53.0513 76.31H51.0513ZM51.1467 76.1713C51.2572 76.0443 51.3714 76.0053 51.3972 75.9977C51.4215 75.9906 51.4027 76 51.3163 76V78C51.6583 78 52.252 77.9482 52.6559 77.4837L51.1467 76.1713ZM51.3163 76H46.1638V78H51.3163V76ZM47.9263 76.125H49.5538V74.125H47.9263V76.125ZM50.5538 75.125V68.8625H48.5538V75.125H50.5538ZM49.5538 67.8625H47.9263V69.8625H49.5538V67.8625ZM46.9263 68.8625V75.125H48.9263V68.8625H46.9263Z" fill="black" mask="url(#path-9-outside-1_1234_8967)"/>
<rect x="3" y="91" width="27" height="2" rx="1" fill="url(#paint8_linear_1234_8967)"/>
<rect x="35" y="91" width="26" height="2" rx="1" fill="url(#paint9_linear_1234_8967)"/>
<path d="M32.5 97L35.5311 94H29.4689L32.5 97Z" fill="#D9D9D9"/>
<defs>
<linearGradient id="paint0_linear_1234_8967" x1="33.5341" y1="2.85263e-07" x2="33.5341" y2="88" gradientUnits="userSpaceOnUse">
<stop stop-color="#D9D9D9"/>
<stop offset="1" stop-color="#737373"/>
</linearGradient>
<linearGradient id="paint1_linear_1234_8967" x1="31.5341" y1="2.85263e-07" x2="31.5341" y2="88" gradientUnits="userSpaceOnUse">
<stop stop-color="#B88142"/>
<stop offset="1" stop-color="#737373"/>
</linearGradient>
<linearGradient id="paint2_linear_1234_8967" x1="37.5" y1="0" x2="37.5" y2="88" gradientUnits="userSpaceOnUse">
<stop stop-color="#2BE8F5"/>
<stop offset="1" stop-color="#E1A8A8"/>
</linearGradient>
<linearGradient id="paint3_linear_1234_8967" x1="38.5" y1="23" x2="38.5" y2="53" gradientUnits="userSpaceOnUse">
<stop stop-color="#FF7700"/>
<stop offset="1" stop-color="#C9AFAF"/>
</linearGradient>
<linearGradient id="paint4_linear_1234_8967" x1="56.8287" y1="58.3607" x2="56.862" y2="59.0827" gradientUnits="userSpaceOnUse">
<stop stop-color="#E7930D"/>
<stop offset="1" stop-color="white"/>
</linearGradient>
<linearGradient id="paint5_linear_1234_8967" x1="19.3459" y1="20.339" x2="19.3771" y2="21.0164" gradientUnits="userSpaceOnUse">
<stop stop-color="#E7930D"/>
<stop offset="1" stop-color="white"/>
</linearGradient>
<linearGradient id="paint6_linear_1234_8967" x1="21.7677" y1="17.2196" x2="21.7879" y2="17.6593" gradientUnits="userSpaceOnUse">
<stop stop-color="#E7930D"/>
<stop offset="1" stop-color="white"/>
</linearGradient>
<linearGradient id="paint7_linear_1234_8967" x1="53.9894" y1="55.2299" x2="54.0106" y2="55.6897" gradientUnits="userSpaceOnUse">
<stop stop-color="#E7930D"/>
<stop offset="1" stop-color="white"/>
</linearGradient>
<linearGradient id="paint8_linear_1234_8967" x1="16.5" y1="91" x2="16.5" y2="93" gradientUnits="userSpaceOnUse">
<stop stop-color="#D9D9D9"/>
<stop offset="1" stop-color="#000308"/>
</linearGradient>
<linearGradient id="paint9_linear_1234_8967" x1="48" y1="91" x2="48" y2="93" gradientUnits="userSpaceOnUse">
<stop stop-color="#D9D9D9"/>
<stop offset="1" stop-color="#000308"/>
</linearGradient>
</defs>
</svg>
