<svg width="93" height="32" viewBox="0 0 93 32" fill="none" xmlns="http://www.w3.org/2000/svg">
<g filter="url(#filter0_d_1366_8984)">
<path d="M4 0H41.507L46.7306 3.42857L51.9543 0H89L87.7737 9.42857L83.2963 11.5714L87.7737 13.7143L89 21.4286H51.9543L46.7306 24L41.507 21.4286H4L7.18001 13.7143L10.9112 11.5714L7.18001 9.42857L4 0Z" fill="url(#paint0_linear_1366_8984)"/>
<path d="M83.0804 12.0224L87.3211 14.052L88.4142 20.9286H51.9543H51.8379L51.7335 20.98L46.7306 23.4427L41.7278 20.98L41.6233 20.9286H41.507H4.74693L7.57716 14.0628L11.1602 12.005L11.9152 11.5714L11.1602 11.1378L7.59326 9.08931L4.69631 0.5H41.3575L46.4563 3.84658L46.7306 4.02665L47.005 3.84658L52.1037 0.5H88.4308L87.3129 9.09479L83.0804 11.1204L82.1381 11.5714L83.0804 12.0224Z" stroke="white"/>
</g>
<mask id="path-3-outside-1_1366_8984" maskUnits="userSpaceOnUse" x="19" y="6" width="58" height="10" fill="black">
<rect fill="white" x="19" y="6" width="58" height="10"/>
<path d="M20.87 15C20.77 15 20.72 14.95 20.72 14.85V7.152C20.72 7.052 20.77 7.002 20.87 7.002H25.052C25.152 7.002 25.202 7.052 25.202 7.152V8.448C25.202 8.548 25.152 8.598 25.052 8.598H22.718V10.302H24.848C24.948 10.302 24.998 10.352 24.998 10.452V11.55C24.998 11.65 24.948 11.7 24.848 11.7H22.718V13.398H25.052C25.152 13.398 25.202 13.448 25.202 13.548V14.85C25.202 14.95 25.152 15 25.052 15H20.87ZM26.788 15C26.688 15 26.638 14.95 26.638 14.85V8.55C26.638 8.45 26.688 8.4 26.788 8.4H29.998C30.09 8.4 30.17 8.434 30.238 8.502L31.438 9.702C31.506 9.766 31.54 9.846 31.54 9.942V14.85C31.54 14.95 31.49 15 31.39 15H29.788C29.688 15 29.638 14.95 29.638 14.85V10.182C29.638 9.994 29.544 9.9 29.356 9.9H28.54V14.85C28.54 14.95 28.49 15 28.39 15H26.788ZM34.3227 15C34.2307 15 34.1507 14.966 34.0827 14.898L33.0807 13.902C33.0167 13.834 32.9847 13.754 32.9847 13.662V9.798H32.7327C32.6327 9.798 32.5827 9.748 32.5827 9.648V8.55C32.5827 8.45 32.6327 8.4 32.7327 8.4H32.9847V7.65C32.9847 7.55 33.0347 7.5 33.1347 7.5H34.7307C34.8307 7.5 34.8807 7.55 34.8807 7.65V8.4H35.4627C35.5627 8.4 35.6127 8.45 35.6127 8.55V9.648C35.6127 9.748 35.5627 9.798 35.4627 9.798H34.8807V13.002C34.8807 13.078 34.9047 13.14 34.9527 13.188L35.5407 13.782C35.5807 13.818 35.6007 13.878 35.6007 13.962V14.85C35.6007 14.95 35.5507 15 35.4507 15H34.3227ZM39.3807 15C39.3407 15 39.2967 14.994 39.2487 14.982C39.2047 14.97 39.1627 14.96 39.1227 14.952L38.0547 14.688L36.8307 14.28C36.7107 14.24 36.6507 14.124 36.6507 13.932V9.942C36.6507 9.846 36.6847 9.766 36.7527 9.702L37.9527 8.502C38.0207 8.434 38.1007 8.4 38.1927 8.4H40.1127C40.2047 8.4 40.2847 8.434 40.3527 8.502L41.5527 9.702C41.6207 9.766 41.6547 9.846 41.6547 9.942V12.402H38.4327L38.3907 13.2L39.2427 13.482L40.7727 13.59C40.8407 13.602 40.8747 13.648 40.8747 13.728V14.85C40.8747 14.95 40.8247 15 40.7247 15H39.3807ZM39.1407 11.46H39.2547C39.4507 11.46 39.6067 11.386 39.7227 11.238C39.8427 11.09 39.9027 10.89 39.9027 10.638V10.518C39.9027 10.27 39.8427 10.072 39.7227 9.924C39.6067 9.776 39.4507 9.702 39.2547 9.702H39.1347C38.9427 9.702 38.7887 9.776 38.6727 9.924C38.5607 10.072 38.5047 10.27 38.5047 10.518V10.638C38.5047 10.89 38.5607 11.09 38.6727 11.238C38.7887 11.386 38.9447 11.46 39.1407 11.46ZM43.0536 15C42.9536 15 42.9036 14.95 42.9036 14.85V8.55C42.9036 8.45 42.9536 8.4 43.0536 8.4H43.9656C44.0416 8.4 44.1076 8.434 44.1636 8.502L44.7516 9.18L45.4056 8.472C45.4496 8.424 45.5056 8.4 45.5736 8.4H46.2216C46.3216 8.4 46.3716 8.45 46.3716 8.55V9.84C46.3716 9.904 46.3676 9.948 46.3596 9.972C46.3516 9.992 46.3296 10.014 46.2936 10.038L44.8056 11.136V14.85C44.8056 14.95 44.7556 15 44.6556 15H43.0536ZM49.1473 15C49.0473 15 48.9973 14.95 48.9973 14.85V7.152C48.9973 7.052 49.0473 7.002 49.1473 7.002H52.3993C52.4953 7.002 52.5753 7.028 52.6393 7.08L54.0193 8.448C54.0633 8.488 54.0893 8.522 54.0973 8.55C54.1093 8.578 54.1153 8.624 54.1153 8.688V10.332C54.1153 10.384 54.0953 10.43 54.0553 10.47L53.3953 11.112L52.8373 11.592L53.4973 12.468L54.1753 13.92C54.1913 13.956 54.2033 13.992 54.2113 14.028C54.2233 14.06 54.2293 14.1 54.2293 14.148V14.85C54.2293 14.95 54.1793 15 54.0793 15H52.4953C52.4073 15 52.3473 14.96 52.3153 14.88L51.3493 12.072H50.8993V14.85C50.8993 14.95 50.8493 15 50.7493 15H49.1473ZM51.5593 10.602C51.8913 10.602 52.1173 10.534 52.2373 10.398C52.3573 10.258 52.4173 9.998 52.4173 9.618C52.4173 9.234 52.3573 8.974 52.2373 8.838C52.1173 8.698 51.8913 8.628 51.5593 8.628C51.2313 8.628 51.0053 8.698 50.8813 8.838C50.7573 8.974 50.6953 9.234 50.6953 9.618C50.6953 9.998 50.7573 10.258 50.8813 10.398C51.0053 10.534 51.2313 10.602 51.5593 10.602ZM56.6848 15C56.5928 15 56.5128 14.966 56.4448 14.898L55.2448 13.698C55.1768 13.634 55.1428 13.554 55.1428 13.458V9.942C55.1428 9.846 55.1768 9.766 55.2448 9.702L56.4448 8.502C56.5128 8.434 56.5928 8.4 56.6848 8.4H58.5028C58.5988 8.4 58.6788 8.434 58.7428 8.502L59.9428 9.702C60.0108 9.766 60.0448 9.846 60.0448 9.942V13.458C60.0448 13.554 60.0108 13.634 59.9428 13.698L58.7428 14.898C58.6788 14.966 58.5988 15 58.5028 15H56.6848ZM57.3868 13.602H57.8068C57.9348 13.602 58.0228 13.576 58.0708 13.524C58.1188 13.472 58.1428 13.38 58.1428 13.248V10.152C58.1428 10.02 58.1188 9.928 58.0708 9.876C58.0228 9.824 57.9348 9.798 57.8068 9.798H57.3868C57.2548 9.798 57.1648 9.824 57.1168 9.876C57.0688 9.928 57.0448 10.02 57.0448 10.152V13.248C57.0448 13.38 57.0688 13.472 57.1168 13.524C57.1648 13.576 57.2548 13.602 57.3868 13.602ZM62.9427 15C62.8507 15 62.7707 14.966 62.7027 14.898L61.5027 13.698C61.4347 13.634 61.4007 13.554 61.4007 13.458V9.942C61.4007 9.846 61.4347 9.766 61.5027 9.702L62.7027 8.502C62.7707 8.434 62.8507 8.4 62.9427 8.4H64.7607C64.8567 8.4 64.9367 8.434 65.0007 8.502L66.2007 9.702C66.2687 9.766 66.3027 9.846 66.3027 9.942V13.458C66.3027 13.554 66.2687 13.634 66.2007 13.698L65.0007 14.898C64.9367 14.966 64.8567 15 64.7607 15H62.9427ZM63.6447 13.602H64.0647C64.1927 13.602 64.2807 13.576 64.3287 13.524C64.3767 13.472 64.4007 13.38 64.4007 13.248V10.152C64.4007 10.02 64.3767 9.928 64.3287 9.876C64.2807 9.824 64.1927 9.798 64.0647 9.798H63.6447C63.5127 9.798 63.4227 9.824 63.3747 9.876C63.3267 9.928 63.3027 10.02 63.3027 10.152V13.248C63.3027 13.38 63.3267 13.472 63.3747 13.524C63.4227 13.576 63.5127 13.602 63.6447 13.602ZM67.8505 15C67.7505 15 67.7005 14.95 67.7005 14.85V8.55C67.7005 8.45 67.7505 8.4 67.8505 8.4H70.5805C70.6725 8.4 70.7525 8.434 70.8205 8.502L71.5585 9.24H71.7805L72.5185 8.502C72.5865 8.434 72.6665 8.4 72.7585 8.4H74.0605C74.1525 8.4 74.2325 8.434 74.3005 8.502L75.5005 9.702C75.5685 9.766 75.6025 9.846 75.6025 9.942V14.85C75.6025 14.95 75.5525 15 75.4525 15H73.8505C73.7505 15 73.7005 14.95 73.7005 14.85V10.152C73.7005 9.984 73.6165 9.9 73.4485 9.9H72.6025V14.85C72.6025 14.95 72.5525 15 72.4525 15H70.8505C70.7505 15 70.7005 14.95 70.7005 14.85V10.152C70.7005 9.984 70.6165 9.9 70.4485 9.9H69.6025V14.85C69.6025 14.95 69.5525 15 69.4525 15H67.8505Z"/>
</mask>
<path d="M20.87 15C20.77 15 20.72 14.95 20.72 14.85V7.152C20.72 7.052 20.77 7.002 20.87 7.002H25.052C25.152 7.002 25.202 7.052 25.202 7.152V8.448C25.202 8.548 25.152 8.598 25.052 8.598H22.718V10.302H24.848C24.948 10.302 24.998 10.352 24.998 10.452V11.55C24.998 11.65 24.948 11.7 24.848 11.7H22.718V13.398H25.052C25.152 13.398 25.202 13.448 25.202 13.548V14.85C25.202 14.95 25.152 15 25.052 15H20.87ZM26.788 15C26.688 15 26.638 14.95 26.638 14.85V8.55C26.638 8.45 26.688 8.4 26.788 8.4H29.998C30.09 8.4 30.17 8.434 30.238 8.502L31.438 9.702C31.506 9.766 31.54 9.846 31.54 9.942V14.85C31.54 14.95 31.49 15 31.39 15H29.788C29.688 15 29.638 14.95 29.638 14.85V10.182C29.638 9.994 29.544 9.9 29.356 9.9H28.54V14.85C28.54 14.95 28.49 15 28.39 15H26.788ZM34.3227 15C34.2307 15 34.1507 14.966 34.0827 14.898L33.0807 13.902C33.0167 13.834 32.9847 13.754 32.9847 13.662V9.798H32.7327C32.6327 9.798 32.5827 9.748 32.5827 9.648V8.55C32.5827 8.45 32.6327 8.4 32.7327 8.4H32.9847V7.65C32.9847 7.55 33.0347 7.5 33.1347 7.5H34.7307C34.8307 7.5 34.8807 7.55 34.8807 7.65V8.4H35.4627C35.5627 8.4 35.6127 8.45 35.6127 8.55V9.648C35.6127 9.748 35.5627 9.798 35.4627 9.798H34.8807V13.002C34.8807 13.078 34.9047 13.14 34.9527 13.188L35.5407 13.782C35.5807 13.818 35.6007 13.878 35.6007 13.962V14.85C35.6007 14.95 35.5507 15 35.4507 15H34.3227ZM39.3807 15C39.3407 15 39.2967 14.994 39.2487 14.982C39.2047 14.97 39.1627 14.96 39.1227 14.952L38.0547 14.688L36.8307 14.28C36.7107 14.24 36.6507 14.124 36.6507 13.932V9.942C36.6507 9.846 36.6847 9.766 36.7527 9.702L37.9527 8.502C38.0207 8.434 38.1007 8.4 38.1927 8.4H40.1127C40.2047 8.4 40.2847 8.434 40.3527 8.502L41.5527 9.702C41.6207 9.766 41.6547 9.846 41.6547 9.942V12.402H38.4327L38.3907 13.2L39.2427 13.482L40.7727 13.59C40.8407 13.602 40.8747 13.648 40.8747 13.728V14.85C40.8747 14.95 40.8247 15 40.7247 15H39.3807ZM39.1407 11.46H39.2547C39.4507 11.46 39.6067 11.386 39.7227 11.238C39.8427 11.09 39.9027 10.89 39.9027 10.638V10.518C39.9027 10.27 39.8427 10.072 39.7227 9.924C39.6067 9.776 39.4507 9.702 39.2547 9.702H39.1347C38.9427 9.702 38.7887 9.776 38.6727 9.924C38.5607 10.072 38.5047 10.27 38.5047 10.518V10.638C38.5047 10.89 38.5607 11.09 38.6727 11.238C38.7887 11.386 38.9447 11.46 39.1407 11.46ZM43.0536 15C42.9536 15 42.9036 14.95 42.9036 14.85V8.55C42.9036 8.45 42.9536 8.4 43.0536 8.4H43.9656C44.0416 8.4 44.1076 8.434 44.1636 8.502L44.7516 9.18L45.4056 8.472C45.4496 8.424 45.5056 8.4 45.5736 8.4H46.2216C46.3216 8.4 46.3716 8.45 46.3716 8.55V9.84C46.3716 9.904 46.3676 9.948 46.3596 9.972C46.3516 9.992 46.3296 10.014 46.2936 10.038L44.8056 11.136V14.85C44.8056 14.95 44.7556 15 44.6556 15H43.0536ZM49.1473 15C49.0473 15 48.9973 14.95 48.9973 14.85V7.152C48.9973 7.052 49.0473 7.002 49.1473 7.002H52.3993C52.4953 7.002 52.5753 7.028 52.6393 7.08L54.0193 8.448C54.0633 8.488 54.0893 8.522 54.0973 8.55C54.1093 8.578 54.1153 8.624 54.1153 8.688V10.332C54.1153 10.384 54.0953 10.43 54.0553 10.47L53.3953 11.112L52.8373 11.592L53.4973 12.468L54.1753 13.92C54.1913 13.956 54.2033 13.992 54.2113 14.028C54.2233 14.06 54.2293 14.1 54.2293 14.148V14.85C54.2293 14.95 54.1793 15 54.0793 15H52.4953C52.4073 15 52.3473 14.96 52.3153 14.88L51.3493 12.072H50.8993V14.85C50.8993 14.95 50.8493 15 50.7493 15H49.1473ZM51.5593 10.602C51.8913 10.602 52.1173 10.534 52.2373 10.398C52.3573 10.258 52.4173 9.998 52.4173 9.618C52.4173 9.234 52.3573 8.974 52.2373 8.838C52.1173 8.698 51.8913 8.628 51.5593 8.628C51.2313 8.628 51.0053 8.698 50.8813 8.838C50.7573 8.974 50.6953 9.234 50.6953 9.618C50.6953 9.998 50.7573 10.258 50.8813 10.398C51.0053 10.534 51.2313 10.602 51.5593 10.602ZM56.6848 15C56.5928 15 56.5128 14.966 56.4448 14.898L55.2448 13.698C55.1768 13.634 55.1428 13.554 55.1428 13.458V9.942C55.1428 9.846 55.1768 9.766 55.2448 9.702L56.4448 8.502C56.5128 8.434 56.5928 8.4 56.6848 8.4H58.5028C58.5988 8.4 58.6788 8.434 58.7428 8.502L59.9428 9.702C60.0108 9.766 60.0448 9.846 60.0448 9.942V13.458C60.0448 13.554 60.0108 13.634 59.9428 13.698L58.7428 14.898C58.6788 14.966 58.5988 15 58.5028 15H56.6848ZM57.3868 13.602H57.8068C57.9348 13.602 58.0228 13.576 58.0708 13.524C58.1188 13.472 58.1428 13.38 58.1428 13.248V10.152C58.1428 10.02 58.1188 9.928 58.0708 9.876C58.0228 9.824 57.9348 9.798 57.8068 9.798H57.3868C57.2548 9.798 57.1648 9.824 57.1168 9.876C57.0688 9.928 57.0448 10.02 57.0448 10.152V13.248C57.0448 13.38 57.0688 13.472 57.1168 13.524C57.1648 13.576 57.2548 13.602 57.3868 13.602ZM62.9427 15C62.8507 15 62.7707 14.966 62.7027 14.898L61.5027 13.698C61.4347 13.634 61.4007 13.554 61.4007 13.458V9.942C61.4007 9.846 61.4347 9.766 61.5027 9.702L62.7027 8.502C62.7707 8.434 62.8507 8.4 62.9427 8.4H64.7607C64.8567 8.4 64.9367 8.434 65.0007 8.502L66.2007 9.702C66.2687 9.766 66.3027 9.846 66.3027 9.942V13.458C66.3027 13.554 66.2687 13.634 66.2007 13.698L65.0007 14.898C64.9367 14.966 64.8567 15 64.7607 15H62.9427ZM63.6447 13.602H64.0647C64.1927 13.602 64.2807 13.576 64.3287 13.524C64.3767 13.472 64.4007 13.38 64.4007 13.248V10.152C64.4007 10.02 64.3767 9.928 64.3287 9.876C64.2807 9.824 64.1927 9.798 64.0647 9.798H63.6447C63.5127 9.798 63.4227 9.824 63.3747 9.876C63.3267 9.928 63.3027 10.02 63.3027 10.152V13.248C63.3027 13.38 63.3267 13.472 63.3747 13.524C63.4227 13.576 63.5127 13.602 63.6447 13.602ZM67.8505 15C67.7505 15 67.7005 14.95 67.7005 14.85V8.55C67.7005 8.45 67.7505 8.4 67.8505 8.4H70.5805C70.6725 8.4 70.7525 8.434 70.8205 8.502L71.5585 9.24H71.7805L72.5185 8.502C72.5865 8.434 72.6665 8.4 72.7585 8.4H74.0605C74.1525 8.4 74.2325 8.434 74.3005 8.502L75.5005 9.702C75.5685 9.766 75.6025 9.846 75.6025 9.942V14.85C75.6025 14.95 75.5525 15 75.4525 15H73.8505C73.7505 15 73.7005 14.95 73.7005 14.85V10.152C73.7005 9.984 73.6165 9.9 73.4485 9.9H72.6025V14.85C72.6025 14.95 72.5525 15 72.4525 15H70.8505C70.7505 15 70.7005 14.95 70.7005 14.85V10.152C70.7005 9.984 70.6165 9.9 70.4485 9.9H69.6025V14.85C69.6025 14.95 69.5525 15 69.4525 15H67.8505Z" fill="white"/>
<path d="M22.718 8.598V7.598H21.718V8.598H22.718ZM22.718 10.302H21.718V11.302H22.718V10.302ZM22.718 11.7V10.7H21.718V11.7H22.718ZM22.718 13.398H21.718V14.398H22.718V13.398ZM20.87 14C20.9741 14 21.2359 14.0267 21.4646 14.2554C21.6933 14.4841 21.72 14.7459 21.72 14.85H19.72C19.72 15.0541 19.7717 15.3909 20.0504 15.6696C20.3291 15.9483 20.6659 16 20.87 16V14ZM21.72 14.85V7.152H19.72V14.85H21.72ZM21.72 7.152C21.72 7.25614 21.6933 7.51793 21.4646 7.74661C21.2359 7.97529 20.9741 8.002 20.87 8.002V6.002C20.6659 6.002 20.3291 6.05371 20.0504 6.33239C19.7717 6.61107 19.72 6.94785 19.72 7.152H21.72ZM20.87 8.002H25.052V6.002H20.87V8.002ZM25.052 8.002C24.9479 8.002 24.6861 7.97529 24.4574 7.74661C24.2287 7.51793 24.202 7.25614 24.202 7.152H26.202C26.202 6.94785 26.1503 6.61107 25.8716 6.33239C25.5929 6.05371 25.2561 6.002 25.052 6.002V8.002ZM24.202 7.152V8.448H26.202V7.152H24.202ZM24.202 8.448C24.202 8.34386 24.2287 8.08207 24.4574 7.85339C24.6861 7.62471 24.9479 7.598 25.052 7.598V9.598C25.2561 9.598 25.5929 9.54629 25.8716 9.26761C26.1503 8.98893 26.202 8.65214 26.202 8.448H24.202ZM25.052 7.598H22.718V9.598H25.052V7.598ZM21.718 8.598V10.302H23.718V8.598H21.718ZM22.718 11.302H24.848V9.302H22.718V11.302ZM24.848 11.302C24.7439 11.302 24.4821 11.2753 24.2534 11.0466C24.0247 10.8179 23.998 10.5561 23.998 10.452H25.998C25.998 10.2479 25.9463 9.91107 25.6676 9.63239C25.3889 9.35371 25.0521 9.302 24.848 9.302V11.302ZM23.998 10.452V11.55H25.998V10.452H23.998ZM23.998 11.55C23.998 11.4459 24.0247 11.1841 24.2534 10.9554C24.4821 10.7267 24.7439 10.7 24.848 10.7V12.7C25.0521 12.7 25.3889 12.6483 25.6676 12.3696C25.9463 12.0909 25.998 11.7541 25.998 11.55H23.998ZM24.848 10.7H22.718V12.7H24.848V10.7ZM21.718 11.7V13.398H23.718V11.7H21.718ZM22.718 14.398H25.052V12.398H22.718V14.398ZM25.052 14.398C24.9479 14.398 24.6861 14.3713 24.4574 14.1426C24.2287 13.9139 24.202 13.6521 24.202 13.548H26.202C26.202 13.3439 26.1503 13.0071 25.8716 12.7284C25.5929 12.4497 25.2561 12.398 25.052 12.398V14.398ZM24.202 13.548V14.85H26.202V13.548H24.202ZM24.202 14.85C24.202 14.7459 24.2287 14.4841 24.4574 14.2554C24.6861 14.0267 24.9479 14 25.052 14V16C25.2561 16 25.5929 15.9483 25.8716 15.6696C26.1503 15.3909 26.202 15.0541 26.202 14.85H24.202ZM25.052 14H20.87V16H25.052V14ZM30.238 8.502L30.9451 7.79489L30.9451 7.79489L30.238 8.502ZM31.438 9.702L30.7309 10.4091L30.7416 10.4198L30.7526 10.4302L31.438 9.702ZM28.54 9.9V8.9H27.54V9.9H28.54ZM26.788 14C26.8921 14 27.1539 14.0267 27.3826 14.2554C27.6113 14.4841 27.638 14.7459 27.638 14.85H25.638C25.638 15.0541 25.6897 15.3909 25.9684 15.6696C26.247 15.9483 26.5838 16 26.788 16V14ZM27.638 14.85V8.55H25.638V14.85H27.638ZM27.638 8.55C27.638 8.65414 27.6113 8.91593 27.3826 9.14461C27.1539 9.37329 26.8921 9.4 26.788 9.4V7.4C26.5838 7.4 26.247 7.45171 25.9684 7.73039C25.6897 8.00907 25.638 8.34585 25.638 8.55H27.638ZM26.788 9.4H29.998V7.4H26.788V9.4ZM29.998 9.4C29.9175 9.4 29.8267 9.38443 29.7358 9.34583C29.6459 9.3076 29.5779 9.25614 29.5309 9.20911L30.9451 7.79489C30.699 7.54882 30.3683 7.4 29.998 7.4V9.4ZM29.5309 9.20911L30.7309 10.4091L32.1451 8.99489L30.9451 7.79489L29.5309 9.20911ZM30.7526 10.4302C30.6934 10.3745 30.6352 10.2978 30.5941 10.2011C30.5533 10.1051 30.54 10.0143 30.54 9.942H32.54C32.54 9.57901 32.3984 9.23268 32.1233 8.9738L30.7526 10.4302ZM30.54 9.942V14.85H32.54V9.942H30.54ZM30.54 14.85C30.54 14.7459 30.5667 14.4841 30.7954 14.2554C31.024 14.0267 31.2858 14 31.39 14V16C31.5941 16 31.9309 15.9483 32.2096 15.6696C32.4883 15.3909 32.54 15.0541 32.54 14.85H30.54ZM31.39 14H29.788V16H31.39V14ZM29.788 14C29.8921 14 30.1539 14.0267 30.3826 14.2554C30.6113 14.4841 30.638 14.7459 30.638 14.85H28.638C28.638 15.0541 28.6897 15.3909 28.9684 15.6696C29.247 15.9483 29.5838 16 29.788 16V14ZM30.638 14.85V10.182H28.638V14.85H30.638ZM30.638 10.182C30.638 9.93386 30.5753 9.56407 30.2746 9.26339C29.9739 8.96271 29.6041 8.9 29.356 8.9V10.9C29.2958 10.9 29.067 10.8843 28.8604 10.6776C28.6537 10.4709 28.638 10.2421 28.638 10.182H30.638ZM29.356 8.9H28.54V10.9H29.356V8.9ZM27.54 9.9V14.85H29.54V9.9H27.54ZM27.54 14.85C27.54 14.7459 27.5667 14.4841 27.7954 14.2554C28.024 14.0267 28.2858 14 28.39 14V16C28.5941 16 28.9309 15.9483 29.2096 15.6696C29.4883 15.3909 29.54 15.0541 29.54 14.85H27.54ZM28.39 14H26.788V16H28.39V14ZM34.0827 14.898L34.7898 14.1909L34.7876 14.1888L34.0827 14.898ZM33.0807 13.902L32.3525 14.5874L32.3639 14.5995L32.3757 14.6112L33.0807 13.902ZM32.9847 9.798H33.9847V8.798H32.9847V9.798ZM32.9847 8.4V9.4H33.9847V8.4H32.9847ZM34.8807 8.4H33.8807V9.4H34.8807V8.4ZM34.8807 9.798V8.798H33.8807V9.798H34.8807ZM34.9527 13.188L35.6634 12.4845L35.6598 12.4809L34.9527 13.188ZM35.5407 13.782L34.83 14.4855L34.8503 14.506L34.8717 14.5253L35.5407 13.782ZM34.3227 14C34.4031 14 34.494 14.0156 34.5848 14.0542C34.6748 14.0924 34.7427 14.1439 34.7898 14.1909L33.3755 15.6051C33.6216 15.8512 33.9524 16 34.3227 16V14ZM34.7876 14.1888L33.7856 13.1928L32.3757 14.6112L33.3777 15.6072L34.7876 14.1888ZM33.8089 13.2166C33.8555 13.2661 33.9029 13.3339 33.9371 13.4196C33.9715 13.5056 33.9847 13.5895 33.9847 13.662H31.9847C31.9847 14.013 32.1168 14.337 32.3525 14.5874L33.8089 13.2166ZM33.9847 13.662V9.798H31.9847V13.662H33.9847ZM32.9847 8.798H32.7327V10.798H32.9847V8.798ZM32.7327 8.798C32.8368 8.798 33.0986 8.82471 33.3273 9.05339C33.5559 9.28207 33.5827 9.54385 33.5827 9.648H31.5827C31.5827 9.85214 31.6344 10.1889 31.913 10.4676C32.1917 10.7463 32.5285 10.798 32.7327 10.798V8.798ZM33.5827 9.648V8.55H31.5827V9.648H33.5827ZM33.5827 8.55C33.5827 8.65414 33.5559 8.91593 33.3273 9.14461C33.0986 9.37329 32.8368 9.4 32.7327 9.4V7.4C32.5285 7.4 32.1917 7.45171 31.913 7.73039C31.6344 8.00907 31.5827 8.34585 31.5827 8.55H33.5827ZM32.7327 9.4H32.9847V7.4H32.7327V9.4ZM33.9847 8.4V7.65H31.9847V8.4H33.9847ZM33.9847 7.65C33.9847 7.75414 33.9579 8.01593 33.7293 8.24461C33.5006 8.47329 33.2388 8.5 33.1347 8.5V6.5C32.9305 6.5 32.5937 6.55171 32.315 6.83039C32.0364 7.10907 31.9847 7.44585 31.9847 7.65H33.9847ZM33.1347 8.5H34.7307V6.5H33.1347V8.5ZM34.7307 8.5C34.6265 8.5 34.3647 8.47329 34.136 8.24461C33.9074 8.01593 33.8807 7.75414 33.8807 7.65H35.8807C35.8807 7.44585 35.8289 7.10907 35.5503 6.83039C35.2716 6.55171 34.9348 6.5 34.7307 6.5V8.5ZM33.8807 7.65V8.4H35.8807V7.65H33.8807ZM34.8807 9.4H35.4627V7.4H34.8807V9.4ZM35.4627 9.4C35.3585 9.4 35.0967 9.37329 34.868 9.14461C34.6394 8.91593 34.6127 8.65414 34.6127 8.55H36.6127C36.6127 8.34586 36.5609 8.00907 36.2823 7.73039C36.0036 7.45171 35.6668 7.4 35.4627 7.4V9.4ZM34.6127 8.55V9.648H36.6127V8.55H34.6127ZM34.6127 9.648C34.6127 9.54386 34.6394 9.28207 34.868 9.05339C35.0967 8.82471 35.3585 8.798 35.4627 8.798V10.798C35.6668 10.798 36.0036 10.7463 36.2823 10.4676C36.5609 10.1889 36.6127 9.85214 36.6127 9.648H34.6127ZM35.4627 8.798H34.8807V10.798H35.4627V8.798ZM33.8807 9.798V13.002H35.8807V9.798H33.8807ZM33.8807 13.002C33.8807 13.3085 33.9868 13.6364 34.2455 13.8951L35.6598 12.4809C35.7321 12.5532 35.7919 12.6429 35.8312 12.7445C35.8697 12.8439 35.8807 12.934 35.8807 13.002H33.8807ZM34.242 13.8915L34.83 14.4855L36.2513 13.0785L35.6633 12.4845L34.242 13.8915ZM34.8717 14.5253C34.6072 14.2872 34.6007 14.0043 34.6007 13.962H36.6007C36.6007 13.7517 36.5542 13.3488 36.2096 13.0387L34.8717 14.5253ZM34.6007 13.962V14.85H36.6007V13.962H34.6007ZM34.6007 14.85C34.6007 14.7459 34.6274 14.4841 34.856 14.2554C35.0847 14.0267 35.3465 14 35.4507 14V16C35.6548 16 35.9916 15.9483 36.2703 15.6696C36.5489 15.3909 36.6007 15.0541 36.6007 14.85H34.6007ZM35.4507 14H34.3227V16H35.4507V14ZM39.2487 14.982L38.9855 15.9468L38.9958 15.9496L39.0061 15.9521L39.2487 14.982ZM39.1227 14.952L38.8827 15.9228L38.9045 15.9282L38.9265 15.9326L39.1227 14.952ZM38.0547 14.688L37.7384 15.6367L37.7761 15.6492L37.8147 15.6588L38.0547 14.688ZM36.8307 14.28L36.5144 15.2287L36.5144 15.2287L36.8307 14.28ZM36.7527 9.702L37.438 10.4302L37.4491 10.4198L37.4598 10.4091L36.7527 9.702ZM37.9527 8.502L37.2456 7.79489L37.2455 7.79489L37.9527 8.502ZM41.5527 9.702L40.8455 10.4091L40.8563 10.4198L40.8673 10.4302L41.5527 9.702ZM41.6547 12.402V13.402H42.6547V12.402H41.6547ZM38.4327 12.402V11.402H37.4839L37.434 12.3494L38.4327 12.402ZM38.3907 13.2L37.392 13.1474L37.3519 13.9095L38.0764 14.1493L38.3907 13.2ZM39.2427 13.482L38.9284 14.4313L39.0473 14.4707L39.1722 14.4795L39.2427 13.482ZM40.7727 13.59L40.9464 12.6052L40.8951 12.5962L40.8431 12.5925L40.7727 13.59ZM39.7227 11.238L38.9459 10.6082L38.9407 10.6146L38.9356 10.6211L39.7227 11.238ZM39.7227 9.924L38.9356 10.5409L38.9407 10.5474L38.9459 10.5538L39.7227 9.924ZM38.6727 9.924L37.8856 9.30712L37.8804 9.31379L37.8752 9.32056L38.6727 9.924ZM38.6727 11.238L37.8752 11.8414L37.8804 11.8482L37.8856 11.8549L38.6727 11.238ZM39.3807 14C39.439 14 39.4778 14.0085 39.4912 14.0119L39.0061 15.9521C39.1155 15.9795 39.2423 16 39.3807 16V14ZM39.5118 14.0172C39.4482 13.9999 39.3837 13.9844 39.3188 13.9714L38.9265 15.9326C38.9416 15.9356 38.9611 15.9401 38.9855 15.9468L39.5118 14.0172ZM39.3626 13.9812L38.2946 13.7172L37.8147 15.6588L38.8827 15.9228L39.3626 13.9812ZM38.3709 13.7393L37.1469 13.3313L36.5144 15.2287L37.7384 15.6367L38.3709 13.7393ZM37.1469 13.3313C37.3428 13.3966 37.4985 13.5386 37.5839 13.7036C37.6203 13.7741 37.6363 13.8338 37.6435 13.8705C37.6506 13.9072 37.6507 13.9295 37.6507 13.932H35.6507C35.6507 14.1184 35.6776 14.3714 35.8074 14.6224C35.9528 14.9034 36.1985 15.1234 36.5144 15.2287L37.1469 13.3313ZM37.6507 13.932V9.942H35.6507V13.932H37.6507ZM37.6507 9.942C37.6507 10.0143 37.6373 10.1051 37.5965 10.2011C37.5554 10.2978 37.4972 10.3745 37.438 10.4302L36.0673 8.9738C35.7922 9.23268 35.6507 9.57901 35.6507 9.942H37.6507ZM37.4598 10.4091L38.6598 9.20911L37.2455 7.79489L36.0455 8.99489L37.4598 10.4091ZM38.6598 9.20911C38.6127 9.25613 38.5448 9.3076 38.4548 9.34583C38.364 9.38443 38.2731 9.4 38.1927 9.4V7.4C37.8224 7.4 37.4916 7.54882 37.2456 7.79489L38.6598 9.20911ZM38.1927 9.4H40.1127V7.4H38.1927V9.4ZM40.1127 9.4C40.0322 9.4 39.9413 9.38443 39.8505 9.34583C39.7606 9.3076 39.6926 9.25613 39.6455 9.20911L41.0598 7.79489C40.8137 7.54882 40.483 7.4 40.1127 7.4V9.4ZM39.6455 9.20911L40.8455 10.4091L42.2598 8.99489L41.0598 7.79489L39.6455 9.20911ZM40.8673 10.4302C40.8081 10.3745 40.7499 10.2978 40.7088 10.2011C40.668 10.1051 40.6547 10.0143 40.6547 9.942H42.6547C42.6547 9.57901 42.5131 9.23268 42.238 8.9738L40.8673 10.4302ZM40.6547 9.942V12.402H42.6547V9.942H40.6547ZM41.6547 11.402H38.4327V13.402H41.6547V11.402ZM37.434 12.3494L37.392 13.1474L39.3893 13.2526L39.4313 12.4546L37.434 12.3494ZM38.0764 14.1493L38.9284 14.4313L39.5569 12.5327L38.7049 12.2507L38.0764 14.1493ZM39.1722 14.4795L40.7022 14.5875L40.8431 12.5925L39.3131 12.4845L39.1722 14.4795ZM40.5989 14.5748C40.4359 14.546 40.2108 14.4522 40.045 14.2279C39.893 14.0222 39.8747 13.8189 39.8747 13.728H41.8747C41.8747 13.5571 41.8393 13.2908 41.6533 13.0391C41.4535 12.7688 41.1774 12.646 40.9464 12.6052L40.5989 14.5748ZM39.8747 13.728V14.85H41.8747V13.728H39.8747ZM39.8747 14.85C39.8747 14.7459 39.9014 14.4841 40.13 14.2554C40.3587 14.0267 40.6205 14 40.7247 14V16C40.9288 16 41.2656 15.9483 41.5443 15.6696C41.8229 15.3909 41.8747 15.0541 41.8747 14.85H39.8747ZM40.7247 14H39.3807V16H40.7247V14ZM39.1407 12.46H39.2547V10.46H39.1407V12.46ZM39.2547 12.46C39.7428 12.46 40.195 12.2564 40.5097 11.8549L38.9356 10.6211C38.9646 10.5841 39.0158 10.5362 39.0901 10.501C39.1631 10.4664 39.2245 10.46 39.2547 10.46V12.46ZM40.4994 11.8678C40.8046 11.4914 40.9027 11.0449 40.9027 10.638H38.9027C38.9027 10.6861 38.8968 10.6998 38.8998 10.6897C38.9015 10.6841 38.9054 10.6729 38.9132 10.6578C38.9211 10.6426 38.9319 10.6255 38.9459 10.6082L40.4994 11.8678ZM40.9027 10.638V10.518H38.9027V10.638H40.9027ZM40.9027 10.518C40.9027 10.1106 40.8025 9.66797 40.4994 9.2942L38.9459 10.5538C38.9326 10.5373 38.9221 10.5209 38.9143 10.5059C38.9065 10.491 38.9025 10.4796 38.9006 10.4735C38.8971 10.462 38.9027 10.4734 38.9027 10.518H40.9027ZM40.5097 9.30712C40.195 8.90562 39.7428 8.702 39.2547 8.702V10.702C39.2245 10.702 39.1631 10.6956 39.0901 10.661C39.0158 10.6258 38.9646 10.5779 38.9356 10.5409L40.5097 9.30712ZM39.2547 8.702H39.1347V10.702H39.2547V8.702ZM39.1347 8.702C38.6429 8.702 38.1958 8.91139 37.8856 9.30712L39.4597 10.5409C39.4328 10.5753 39.3829 10.623 39.3083 10.6588C39.2342 10.6944 39.1699 10.702 39.1347 10.702V8.702ZM37.8752 9.32056C37.5938 9.6925 37.5047 10.1249 37.5047 10.518H39.5047C39.5047 10.4678 39.5105 10.4502 39.5089 10.4557C39.508 10.4589 39.5051 10.4679 39.4987 10.4812C39.4922 10.4945 39.4829 10.5105 39.4701 10.5274L37.8752 9.32056ZM37.5047 10.518V10.638H39.5047V10.518H37.5047ZM37.5047 10.638C37.5047 11.0309 37.5919 11.467 37.8752 11.8414L39.4701 10.6346C39.4835 10.6524 39.4932 10.6689 39.4997 10.6825C39.5062 10.6959 39.5089 10.7048 39.5096 10.7074C39.5108 10.7115 39.5047 10.6915 39.5047 10.638H37.5047ZM37.8856 11.8549C38.2003 12.2564 38.6525 12.46 39.1407 12.46V10.46C39.1708 10.46 39.2323 10.4664 39.3052 10.501C39.3795 10.5362 39.4307 10.5841 39.4597 10.6211L37.8856 11.8549ZM44.1636 8.502L43.3917 9.13771L43.3998 9.14755L43.4081 9.15718L44.1636 8.502ZM44.7516 9.18L43.9961 9.83518L44.7281 10.6792L45.4862 9.85854L44.7516 9.18ZM45.4056 8.472L46.1402 9.15054L46.1427 9.14773L45.4056 8.472ZM46.3596 9.972L47.2881 10.3434L47.299 10.3161L47.3083 10.2882L46.3596 9.972ZM46.2936 10.038L45.7389 9.20595L45.719 9.21919L45.6998 9.23335L46.2936 10.038ZM44.8056 11.136L44.2118 10.3314L43.8056 10.6311V11.136H44.8056ZM43.0536 14C43.1577 14 43.4195 14.0267 43.6482 14.2554C43.8769 14.4841 43.9036 14.7459 43.9036 14.85H41.9036C41.9036 15.0541 41.9553 15.3909 42.234 15.6696C42.5127 15.9483 42.8494 16 43.0536 16V14ZM43.9036 14.85V8.55H41.9036V14.85H43.9036ZM43.9036 8.55C43.9036 8.65414 43.8769 8.91593 43.6482 9.14461C43.4195 9.37329 43.1577 9.4 43.0536 9.4V7.4C42.8494 7.4 42.5127 7.45171 42.234 7.73039C41.9553 8.00907 41.9036 8.34585 41.9036 8.55H43.9036ZM43.0536 9.4H43.9656V7.4H43.0536V9.4ZM43.9656 9.4C43.8482 9.4 43.7262 9.37221 43.6141 9.31447C43.506 9.25877 43.4342 9.18934 43.3917 9.13771L44.9355 7.86629C44.7233 7.60864 44.3898 7.4 43.9656 7.4V9.4ZM43.4081 9.15718L43.9961 9.83518L45.5071 8.52481L44.9191 7.84681L43.4081 9.15718ZM45.4862 9.85854L46.1402 9.15054L44.671 7.79346L44.017 8.50146L45.4862 9.85854ZM46.1427 9.14773C46.0756 9.22098 45.9857 9.28949 45.8745 9.33715C45.7643 9.38436 45.6593 9.4 45.5736 9.4V7.4C45.2393 7.4 44.9111 7.53152 44.6684 7.79627L46.1427 9.14773ZM45.5736 9.4H46.2216V7.4H45.5736V9.4ZM46.2216 9.4C46.1174 9.4 45.8557 9.37329 45.627 9.14461C45.3983 8.91593 45.3716 8.65414 45.3716 8.55H47.3716C47.3716 8.34586 47.3199 8.00907 47.0412 7.73039C46.7625 7.45171 46.4257 7.4 46.2216 7.4V9.4ZM45.3716 8.55V9.84H47.3716V8.55H45.3716ZM45.3716 9.84C45.3716 9.85388 45.3711 9.8486 45.3727 9.83046C45.3736 9.82085 45.3756 9.80191 45.3801 9.77647C45.3842 9.75278 45.393 9.70961 45.4109 9.65577L47.3083 10.2882C47.3737 10.0918 47.3716 9.8962 47.3716 9.84H45.3716ZM45.4311 9.6006C45.4946 9.44202 45.5844 9.34201 45.63 9.29639C45.6796 9.24676 45.7216 9.21747 45.7389 9.20595L46.8483 10.87C46.9122 10.8274 47.1602 10.663 47.2881 10.3434L45.4311 9.6006ZM45.6998 9.23335L44.2118 10.3314L45.3993 11.9406L46.8873 10.8426L45.6998 9.23335ZM43.8056 11.136V14.85H45.8056V11.136H43.8056ZM43.8056 14.85C43.8056 14.7459 43.8323 14.4841 44.061 14.2554C44.2897 14.0267 44.5514 14 44.6556 14V16C44.8597 16 45.1965 15.9483 45.4752 15.6696C45.7539 15.3909 45.8056 15.0541 45.8056 14.85H43.8056ZM44.6556 14H43.0536V16H44.6556V14ZM52.6393 7.08L53.3434 6.36981L53.3083 6.33504L53.2699 6.30389L52.6393 7.08ZM54.0193 8.448L53.3153 9.15819L53.3307 9.1734L53.3467 9.18794L54.0193 8.448ZM54.0973 8.55L53.1358 8.82472L53.1532 8.88566L53.1782 8.94392L54.0973 8.55ZM54.0553 10.47L54.7527 11.1869L54.7625 11.1771L54.0553 10.47ZM53.3953 11.112L54.0475 11.8701L54.0707 11.8501L54.0926 11.8288L53.3953 11.112ZM52.8373 11.592L52.1852 10.8339L51.4746 11.4451L52.0387 12.1937L52.8373 11.592ZM53.4973 12.468L54.4034 12.0449L54.3591 11.95L54.296 11.8663L53.4973 12.468ZM54.1753 13.92L55.0892 13.5139L55.0854 13.5053L55.0814 13.4969L54.1753 13.92ZM54.2113 14.028L53.2352 14.2449L53.2504 14.3134L53.275 14.3791L54.2113 14.028ZM52.3153 14.88L51.3697 15.2053L51.3777 15.2286L51.3869 15.2514L52.3153 14.88ZM51.3493 12.072L52.295 11.7467L52.0628 11.072H51.3493V12.072ZM50.8993 12.072V11.072H49.8993V12.072H50.8993ZM52.2373 10.398L52.9872 11.0596L52.9919 11.0542L52.9966 11.0488L52.2373 10.398ZM52.2373 8.838L51.4781 9.48879L51.4828 9.49424L51.4875 9.49962L52.2373 8.838ZM50.8813 8.838L51.6203 9.51175L51.6252 9.50643L51.6299 9.50104L50.8813 8.838ZM50.8813 10.398L50.1328 11.061L50.1375 11.0664L50.1424 11.0718L50.8813 10.398ZM49.1473 14C49.2515 14 49.5133 14.0267 49.742 14.2554C49.9706 14.4841 49.9973 14.7459 49.9973 14.85H47.9973C47.9973 15.0541 48.0491 15.3909 48.3277 15.6696C48.6064 15.9483 48.9432 16 49.1473 16V14ZM49.9973 14.85V7.152H47.9973V14.85H49.9973ZM49.9973 7.152C49.9973 7.25614 49.9706 7.51793 49.742 7.74661C49.5133 7.97529 49.2515 8.002 49.1473 8.002V6.002C48.9432 6.002 48.6064 6.05371 48.3277 6.33239C48.0491 6.61107 47.9973 6.94785 47.9973 7.152H49.9973ZM49.1473 8.002H52.3993V6.002H49.1473V8.002ZM52.3993 8.002C52.3052 8.002 52.1514 7.97205 52.0088 7.85611L53.2699 6.30389C52.9992 6.08395 52.6855 6.002 52.3993 6.002V8.002ZM51.9353 7.79019L53.3153 9.15819L54.7234 7.73781L53.3434 6.36981L51.9353 7.79019ZM53.3467 9.18794C53.34 9.18185 53.312 9.15605 53.2775 9.11095C53.2469 9.07101 53.1784 8.97365 53.1358 8.82472L55.0589 8.27528C54.9691 7.96109 54.7571 7.76726 54.692 7.70806L53.3467 9.18794ZM53.1782 8.94392C53.1547 8.88919 53.1413 8.84266 53.1336 8.81073C53.1256 8.77808 53.1215 8.7519 53.1192 8.73484C53.115 8.70232 53.1153 8.6843 53.1153 8.688H55.1153C55.1153 8.60504 55.1139 8.38336 55.0165 8.15608L53.1782 8.94392ZM53.1153 8.688V10.332H55.1153V8.688H53.1153ZM53.1153 10.332C53.1153 10.226 53.1366 10.1142 53.1833 10.0068C53.2293 9.90096 53.2908 9.82034 53.3482 9.76289L54.7625 11.1771C54.9718 10.9677 55.1153 10.6738 55.1153 10.332H53.1153ZM53.3581 9.75319L52.6981 10.3952L54.0926 11.8288L54.7526 11.1868L53.3581 9.75319ZM52.7432 10.3539L52.1852 10.8339L53.4895 12.3501L54.0475 11.8701L52.7432 10.3539ZM52.0387 12.1937L52.6987 13.0697L54.296 11.8663L53.636 10.9903L52.0387 12.1937ZM52.5913 12.8911L53.2693 14.3431L55.0814 13.4969L54.4034 12.0449L52.5913 12.8911ZM53.2615 14.3261C53.2523 14.3054 53.2425 14.2782 53.2352 14.2449L55.1875 13.8111C55.1641 13.7058 55.1304 13.6066 55.0892 13.5139L53.2615 14.3261ZM53.275 14.3791C53.2316 14.2634 53.2293 14.1751 53.2293 14.148H55.2293C55.2293 14.0249 55.2151 13.8566 55.1477 13.6769L53.275 14.3791ZM53.2293 14.148V14.85H55.2293V14.148H53.2293ZM53.2293 14.85C53.2293 14.7459 53.2561 14.4841 53.4847 14.2554C53.7134 14.0267 53.9752 14 54.0793 14V16C54.2835 16 54.6203 15.9483 54.899 15.6696C55.1776 15.3909 55.2293 15.0541 55.2293 14.85H53.2293ZM54.0793 14H52.4953V16H54.0793V14ZM52.4953 14C52.6049 14 52.7717 14.0264 52.939 14.1379C53.108 14.2506 53.1996 14.3981 53.2438 14.5086L51.3869 15.2514C51.4631 15.4419 51.6007 15.6494 51.8296 15.8021C52.057 15.9536 52.2978 16 52.4953 16V14ZM53.261 14.5547L52.295 11.7467L50.4037 12.3973L51.3697 15.2053L53.261 14.5547ZM51.3493 11.072H50.8993V13.072H51.3493V11.072ZM49.8993 12.072V14.85H51.8993V12.072H49.8993ZM49.8993 14.85C49.8993 14.7459 49.9261 14.4841 50.1547 14.2554C50.3834 14.0267 50.6452 14 50.7493 14V16C50.9535 16 51.2903 15.9483 51.569 15.6696C51.8476 15.3909 51.8993 15.0541 51.8993 14.85H49.8993ZM50.7493 14H49.1473V16H50.7493V14ZM51.5593 11.602C51.9582 11.602 52.5689 11.5337 52.9872 11.0596L51.4875 9.73638C51.5828 9.62838 51.677 9.59723 51.6897 9.59341C51.697 9.59122 51.691 9.59373 51.6675 9.59659C51.6443 9.59942 51.6089 9.602 51.5593 9.602V11.602ZM52.9966 11.0488C53.3693 10.614 53.4173 10.0247 53.4173 9.618H51.4173C51.4173 9.68727 51.4146 9.74316 51.4105 9.78716C51.4063 9.83152 51.4012 9.85915 51.398 9.87314C51.3946 9.88757 51.3948 9.88095 51.4042 9.86013C51.4137 9.83907 51.4356 9.79683 51.4781 9.74721L52.9966 11.0488ZM53.4173 9.618C53.4173 9.3803 53.3994 9.13827 53.3467 8.91014C53.2957 8.68897 53.1969 8.41405 52.9872 8.17638L51.4875 9.49962C51.4405 9.44637 51.4163 9.40031 51.4057 9.37705C51.3953 9.35404 51.3947 9.3458 51.398 9.35986C51.4011 9.37339 51.4062 9.40101 51.4104 9.44602C51.4146 9.49061 51.4173 9.54743 51.4173 9.618H53.4173ZM52.9966 8.18721C52.5798 7.70099 51.9647 7.628 51.5593 7.628V9.628C51.6079 9.628 51.6421 9.6306 51.664 9.63335C51.6861 9.63613 51.6907 9.63843 51.682 9.63573C51.6652 9.63055 51.5711 9.59726 51.4781 9.48879L52.9966 8.18721ZM51.5593 7.628C51.1483 7.628 50.549 7.70507 50.1328 8.17496L51.6299 9.50104C51.5423 9.59995 51.4557 9.63078 51.4397 9.63573C51.4317 9.63821 51.4364 9.63595 51.4578 9.63324C51.4791 9.63055 51.5122 9.628 51.5593 9.628V7.628ZM50.1424 8.16425C49.9263 8.40128 49.8228 8.67793 49.7691 8.90304C49.714 9.13408 49.6953 9.3787 49.6953 9.618H51.6953C51.6953 9.54828 51.6982 9.4925 51.7024 9.44908C51.7066 9.40525 51.7117 9.37901 51.7146 9.36696C51.7176 9.35443 51.7165 9.36413 51.7051 9.38839C51.6935 9.41303 51.6682 9.45925 51.6203 9.51175L50.1424 8.16425ZM49.6953 9.618C49.6953 10.0289 49.7463 10.6247 50.1328 11.061L51.6299 9.73497C51.6733 9.78396 51.6963 9.82643 51.7067 9.84886C51.717 9.87089 51.7177 9.87896 51.7146 9.86604C51.7116 9.85351 51.7065 9.82726 51.7023 9.78408C51.6982 9.74125 51.6953 9.68641 51.6953 9.618H49.6953ZM50.1424 11.0718C50.5599 11.5297 51.1548 11.602 51.5593 11.602V9.602C51.5112 9.602 51.4769 9.59947 51.4543 9.5967C51.4315 9.5939 51.4254 9.59142 51.432 9.59341C51.4441 9.59705 51.5306 9.62584 51.6203 9.72425L50.1424 11.0718ZM56.4448 14.898L57.152 14.1909L57.152 14.1909L56.4448 14.898ZM55.2448 13.698L55.952 12.9909L55.9412 12.9802L55.9302 12.9698L55.2448 13.698ZM55.2448 9.702L55.9302 10.4302L55.9412 10.4198L55.952 10.4091L55.2448 9.702ZM56.4448 8.502L55.7377 7.79489L55.7377 7.79489L56.4448 8.502ZM58.7428 8.502L58.0146 9.18737L58.025 9.1984L58.0357 9.20911L58.7428 8.502ZM59.9428 9.702L59.2357 10.4091L59.2464 10.4198L59.2575 10.4302L59.9428 9.702ZM59.9428 13.698L59.2575 12.9698L59.2464 12.9802L59.2357 12.9909L59.9428 13.698ZM58.7428 14.898L58.0357 14.1909L58.025 14.2016L58.0146 14.2126L58.7428 14.898ZM58.0708 13.524L57.336 12.8457L57.336 12.8457L58.0708 13.524ZM58.0708 9.876L57.336 10.5543L57.336 10.5543L58.0708 9.876ZM57.1168 9.876L57.8516 10.5543L57.8516 10.5543L57.1168 9.876ZM57.1168 13.524L57.8516 12.8457L57.8516 12.8457L57.1168 13.524ZM56.6848 14C56.7653 14 56.8562 14.0156 56.947 14.0542C57.0369 14.0924 57.1049 14.1439 57.152 14.1909L55.7377 15.6051C55.9838 15.8512 56.3145 16 56.6848 16V14ZM57.152 14.1909L55.952 12.9909L54.5377 14.4051L55.7377 15.6051L57.152 14.1909ZM55.9302 12.9698C55.9894 13.0255 56.0476 13.1022 56.0887 13.1989C56.1295 13.2949 56.1428 13.3857 56.1428 13.458H54.1428C54.1428 13.821 54.2844 14.1673 54.5595 14.4262L55.9302 12.9698ZM56.1428 13.458V9.942H54.1428V13.458H56.1428ZM56.1428 9.942C56.1428 10.0143 56.1295 10.1051 56.0887 10.2011C56.0476 10.2978 55.9894 10.3745 55.9302 10.4302L54.5595 8.9738C54.2844 9.23268 54.1428 9.57901 54.1428 9.942H56.1428ZM55.952 10.4091L57.152 9.20911L55.7377 7.79489L54.5377 8.99489L55.952 10.4091ZM57.1519 9.20911C57.1049 9.25613 57.0369 9.3076 56.947 9.34583C56.8562 9.38443 56.7653 9.4 56.6848 9.4V7.4C56.3145 7.4 55.9838 7.54882 55.7377 7.79489L57.1519 9.20911ZM56.6848 9.4H58.5028V7.4H56.6848V9.4ZM58.5028 9.4C58.4305 9.4 58.3397 9.38665 58.2437 9.34583C58.147 9.30475 58.0704 9.24658 58.0146 9.18737L59.471 7.81663C59.2122 7.54157 58.8658 7.4 58.5028 7.4V9.4ZM58.0357 9.20911L59.2357 10.4091L60.65 8.99489L59.45 7.79489L58.0357 9.20911ZM59.2575 10.4302C59.1983 10.3745 59.1401 10.2978 59.099 10.2011C59.0582 10.1051 59.0448 10.0143 59.0448 9.942H61.0448C61.0448 9.57901 60.9033 9.23268 60.6282 8.9738L59.2575 10.4302ZM59.0448 9.942V13.458H61.0448V9.942H59.0448ZM59.0448 13.458C59.0448 13.3857 59.0582 13.2949 59.099 13.1989C59.1401 13.1022 59.1983 13.0255 59.2575 12.9698L60.6282 14.4262C60.9033 14.1673 61.0448 13.821 61.0448 13.458H59.0448ZM59.2357 12.9909L58.0357 14.1909L59.45 15.6051L60.65 14.4051L59.2357 12.9909ZM58.0146 14.2126C58.0704 14.1534 58.147 14.0952 58.2437 14.0542C58.3397 14.0134 58.4305 14 58.5028 14V16C58.8658 16 59.2122 15.8584 59.471 15.5834L58.0146 14.2126ZM58.5028 14H56.6848V16H58.5028V14ZM57.3868 14.602H57.8068V12.602H57.3868V14.602ZM57.8068 14.602C58.0058 14.602 58.4626 14.574 58.8056 14.2023L57.336 12.8457C57.4657 12.7053 57.6067 12.6468 57.6855 12.6235C57.7258 12.6116 57.7572 12.6065 57.7758 12.6043C57.7947 12.602 57.8057 12.602 57.8068 12.602V14.602ZM58.8056 14.2023C59.1209 13.8608 59.1428 13.4383 59.1428 13.248H57.1428C57.1428 13.2591 57.1412 13.2249 57.1572 13.1636C57.173 13.103 57.217 12.9747 57.336 12.8457L58.8056 14.2023ZM59.1428 13.248V10.152H57.1428V13.248H59.1428ZM59.1428 10.152C59.1428 9.96174 59.1209 9.53923 58.8056 9.19772L57.336 10.5543C57.217 10.4253 57.173 10.297 57.1572 10.2364C57.1412 10.1751 57.1428 10.1409 57.1428 10.152H59.1428ZM58.8056 9.19772C58.4626 8.82605 58.0058 8.798 57.8068 8.798V10.798C57.8057 10.798 57.7947 10.798 57.7758 10.7957C57.7572 10.7935 57.7258 10.7884 57.6855 10.7765C57.6067 10.7532 57.4657 10.6947 57.336 10.5543L58.8056 9.19772ZM57.8068 8.798H57.3868V10.798H57.8068V8.798ZM57.3868 8.798C57.1952 8.798 56.7293 8.82152 56.382 9.19772L57.8516 10.5543C57.7179 10.6991 57.573 10.7565 57.4979 10.7782C57.4242 10.7995 57.3796 10.798 57.3868 10.798V8.798ZM56.382 9.19772C56.0668 9.53923 56.0448 9.96174 56.0448 10.152H58.0448C58.0448 10.1409 58.0465 10.1751 58.0305 10.2364C58.0146 10.297 57.9707 10.4253 57.8516 10.5543L56.382 9.19772ZM56.0448 10.152V13.248H58.0448V10.152H56.0448ZM56.0448 13.248C56.0448 13.4383 56.0668 13.8608 56.382 14.2023L57.8516 12.8457C57.9707 12.9747 58.0146 13.103 58.0305 13.1636C58.0465 13.2249 58.0448 13.2591 58.0448 13.248H56.0448ZM56.382 14.2023C56.7293 14.5785 57.1952 14.602 57.3868 14.602V12.602C57.3796 12.602 57.4242 12.6005 57.4979 12.6218C57.573 12.6435 57.7179 12.7009 57.8516 12.8457L56.382 14.2023ZM62.7027 14.898L63.4098 14.1909L63.4098 14.1909L62.7027 14.898ZM61.5027 13.698L62.2098 12.9909L62.1991 12.9802L62.188 12.9698L61.5027 13.698ZM61.5027 9.702L62.188 10.4302L62.1991 10.4198L62.2098 10.4091L61.5027 9.702ZM62.7027 8.502L61.9956 7.79489L61.9955 7.79489L62.7027 8.502ZM65.0007 8.502L64.2725 9.18737L64.2828 9.1984L64.2935 9.20911L65.0007 8.502ZM66.2007 9.702L65.4935 10.4091L65.5043 10.4198L65.5153 10.4302L66.2007 9.702ZM66.2007 13.698L65.5153 12.9698L65.5043 12.9802L65.4935 12.9909L66.2007 13.698ZM65.0007 14.898L64.2935 14.1909L64.2828 14.2016L64.2725 14.2126L65.0007 14.898ZM64.3287 13.524L63.5939 12.8457L63.5939 12.8457L64.3287 13.524ZM64.3287 9.876L63.5939 10.5543L63.5939 10.5543L64.3287 9.876ZM63.3747 9.876L64.1095 10.5543L64.1095 10.5543L63.3747 9.876ZM63.3747 13.524L64.1095 12.8457L64.1095 12.8457L63.3747 13.524ZM62.9427 14C63.0231 14 63.114 14.0156 63.2048 14.0542C63.2948 14.0924 63.3627 14.1439 63.4098 14.1909L61.9955 15.6051C62.2416 15.8512 62.5724 16 62.9427 16V14ZM63.4098 14.1909L62.2098 12.9909L60.7955 14.4051L61.9955 15.6051L63.4098 14.1909ZM62.188 12.9698C62.2472 13.0255 62.3054 13.1022 62.3465 13.1989C62.3873 13.2949 62.4007 13.3857 62.4007 13.458H60.4007C60.4007 13.821 60.5422 14.1673 60.8173 14.4262L62.188 12.9698ZM62.4007 13.458V9.942H60.4007V13.458H62.4007ZM62.4007 9.942C62.4007 10.0143 62.3873 10.1051 62.3465 10.2011C62.3054 10.2978 62.2472 10.3745 62.188 10.4302L60.8173 8.9738C60.5422 9.23268 60.4007 9.57901 60.4007 9.942H62.4007ZM62.2098 10.4091L63.4098 9.20911L61.9955 7.79489L60.7955 8.99489L62.2098 10.4091ZM63.4098 9.20911C63.3627 9.25613 63.2948 9.3076 63.2048 9.34583C63.114 9.38443 63.0231 9.4 62.9427 9.4V7.4C62.5724 7.4 62.2416 7.54882 61.9956 7.79489L63.4098 9.20911ZM62.9427 9.4H64.7607V7.4H62.9427V9.4ZM64.7607 9.4C64.6883 9.4 64.5976 9.38665 64.5015 9.34583C64.4049 9.30475 64.3282 9.24658 64.2725 9.18737L65.7289 7.81663C65.47 7.54157 65.1236 7.4 64.7607 7.4V9.4ZM64.2935 9.20911L65.4935 10.4091L66.9078 8.99489L65.7078 7.79489L64.2935 9.20911ZM65.5153 10.4302C65.4561 10.3745 65.3979 10.2978 65.3568 10.2011C65.316 10.1051 65.3027 10.0143 65.3027 9.942H67.3027C67.3027 9.57901 67.1611 9.23268 66.886 8.9738L65.5153 10.4302ZM65.3027 9.942V13.458H67.3027V9.942H65.3027ZM65.3027 13.458C65.3027 13.3857 65.316 13.2949 65.3568 13.1989C65.3979 13.1022 65.4561 13.0255 65.5153 12.9698L66.886 14.4262C67.1611 14.1673 67.3027 13.821 67.3027 13.458H65.3027ZM65.4935 12.9909L64.2935 14.1909L65.7078 15.6051L66.9078 14.4051L65.4935 12.9909ZM64.2725 14.2126C64.3282 14.1534 64.4049 14.0952 64.5015 14.0542C64.5976 14.0134 64.6883 14 64.7607 14V16C65.1236 16 65.47 15.8584 65.7289 15.5834L64.2725 14.2126ZM64.7607 14H62.9427V16H64.7607V14ZM63.6447 14.602H64.0647V12.602H63.6447V14.602ZM64.0647 14.602C64.2636 14.602 64.7204 14.574 65.0635 14.2023L63.5939 12.8457C63.7235 12.7053 63.8645 12.6468 63.9433 12.6235C63.9836 12.6116 64.0151 12.6065 64.0336 12.6043C64.0525 12.602 64.0635 12.602 64.0647 12.602V14.602ZM65.0635 14.2023C65.3787 13.8608 65.4007 13.4383 65.4007 13.248H63.4007C63.4007 13.2591 63.399 13.2249 63.415 13.1636C63.4309 13.103 63.4748 12.9747 63.5939 12.8457L65.0635 14.2023ZM65.4007 13.248V10.152H63.4007V13.248H65.4007ZM65.4007 10.152C65.4007 9.96174 65.3787 9.53923 65.0635 9.19772L63.5939 10.5543C63.4748 10.4253 63.4309 10.297 63.415 10.2364C63.399 10.1751 63.4007 10.1409 63.4007 10.152H65.4007ZM65.0635 9.19772C64.7204 8.82605 64.2636 8.798 64.0647 8.798V10.798C64.0635 10.798 64.0525 10.798 64.0336 10.7957C64.0151 10.7935 63.9836 10.7884 63.9433 10.7765C63.8645 10.7532 63.7235 10.6947 63.5939 10.5543L65.0635 9.19772ZM64.0647 8.798H63.6447V10.798H64.0647V8.798ZM63.6447 8.798C63.453 8.798 62.9871 8.82152 62.6399 9.19772L64.1095 10.5543C63.9757 10.6991 63.8308 10.7565 63.7557 10.7782C63.682 10.7995 63.6375 10.798 63.6447 10.798V8.798ZM62.6399 9.19772C62.3246 9.53923 62.3027 9.96174 62.3027 10.152H64.3027C64.3027 10.1409 64.3043 10.1751 64.2883 10.2364C64.2725 10.297 64.2285 10.4253 64.1095 10.5543L62.6399 9.19772ZM62.3027 10.152V13.248H64.3027V10.152H62.3027ZM62.3027 13.248C62.3027 13.4383 62.3246 13.8608 62.6399 14.2023L64.1095 12.8457C64.2285 12.9747 64.2725 13.103 64.2883 13.1636C64.3043 13.2249 64.3027 13.2591 64.3027 13.248H62.3027ZM62.6399 14.2023C62.9871 14.5785 63.453 14.602 63.6447 14.602V12.602C63.6375 12.602 63.682 12.6005 63.7557 12.6218C63.8308 12.6435 63.9757 12.7009 64.1095 12.8457L62.6399 14.2023ZM70.8205 8.502L71.5276 7.79489L71.5276 7.79489L70.8205 8.502ZM71.5585 9.24L70.8514 9.94711L71.1443 10.24H71.5585V9.24ZM71.7805 9.24V10.24H72.1947L72.4876 9.94711L71.7805 9.24ZM72.5185 8.502L71.8114 7.79489L71.8114 7.79489L72.5185 8.502ZM75.5005 9.702L74.7934 10.4091L74.8041 10.4198L74.8151 10.4302L75.5005 9.702ZM72.6025 9.9V8.9H71.6025V9.9H72.6025ZM69.6025 9.9V8.9H68.6025V9.9H69.6025ZM67.8505 14C67.9546 14 68.2164 14.0267 68.4451 14.2554C68.6738 14.4841 68.7005 14.7459 68.7005 14.85H66.7005C66.7005 15.0541 66.7522 15.3909 67.0309 15.6696C67.3095 15.9483 67.6463 16 67.8505 16V14ZM68.7005 14.85V8.55H66.7005V14.85H68.7005ZM68.7005 8.55C68.7005 8.65414 68.6738 8.91593 68.4451 9.14461C68.2164 9.37329 67.9546 9.4 67.8505 9.4V7.4C67.6463 7.4 67.3095 7.45171 67.0309 7.73039C66.7522 8.00907 66.7005 8.34585 66.7005 8.55H68.7005ZM67.8505 9.4H70.5805V7.4H67.8505V9.4ZM70.5805 9.4C70.5 9.4 70.4092 9.38443 70.3183 9.34583C70.2284 9.3076 70.1604 9.25614 70.1134 9.20911L71.5276 7.79489C71.2815 7.54882 70.9508 7.4 70.5805 7.4V9.4ZM70.1134 9.20911L70.8514 9.94711L72.2656 8.53289L71.5276 7.79489L70.1134 9.20911ZM71.5585 10.24H71.7805V8.24H71.5585V10.24ZM72.4876 9.94711L73.2256 9.20911L71.8114 7.79489L71.0734 8.53289L72.4876 9.94711ZM73.2256 9.20911C73.1785 9.25614 73.1106 9.3076 73.0206 9.34583C72.9298 9.38443 72.8389 9.4 72.7585 9.4V7.4C72.3882 7.4 72.0574 7.54882 71.8114 7.79489L73.2256 9.20911ZM72.7585 9.4H74.0605V7.4H72.7585V9.4ZM74.0605 9.4C73.98 9.4 73.8892 9.38443 73.7983 9.34583C73.7084 9.3076 73.6404 9.25613 73.5934 9.20911L75.0076 7.79489C74.7615 7.54882 74.4308 7.4 74.0605 7.4V9.4ZM73.5934 9.20911L74.7934 10.4091L76.2076 8.99489L75.0076 7.79489L73.5934 9.20911ZM74.8151 10.4302C74.7559 10.3745 74.6977 10.2978 74.6566 10.2011C74.6158 10.1051 74.6025 10.0143 74.6025 9.942H76.6025C76.6025 9.57901 76.4609 9.23268 76.1858 8.9738L74.8151 10.4302ZM74.6025 9.942V14.85H76.6025V9.942H74.6025ZM74.6025 14.85C74.6025 14.7459 74.6292 14.4841 74.8579 14.2554C75.0865 14.0267 75.3483 14 75.4525 14V16C75.6566 16 75.9934 15.9483 76.2721 15.6696C76.5508 15.3909 76.6025 15.0541 76.6025 14.85H74.6025ZM75.4525 14H73.8505V16H75.4525V14ZM73.8505 14C73.9546 14 74.2164 14.0267 74.4451 14.2554C74.6738 14.4841 74.7005 14.7459 74.7005 14.85H72.7005C72.7005 15.0541 72.7522 15.3909 73.0309 15.6696C73.3095 15.9483 73.6463 16 73.8505 16V14ZM74.7005 14.85V10.152H72.7005V14.85H74.7005ZM74.7005 10.152C74.7005 9.91386 74.6403 9.55157 74.3446 9.25589C74.0489 8.96021 73.6866 8.9 73.4485 8.9V10.9C73.3783 10.9 73.142 10.8818 72.9304 10.6701C72.7187 10.4584 72.7005 10.2221 72.7005 10.152H74.7005ZM73.4485 8.9H72.6025V10.9H73.4485V8.9ZM71.6025 9.9V14.85H73.6025V9.9H71.6025ZM71.6025 14.85C71.6025 14.7459 71.6292 14.4841 71.8579 14.2554C72.0865 14.0267 72.3483 14 72.4525 14V16C72.6566 16 72.9934 15.9483 73.2721 15.6696C73.5508 15.3909 73.6025 15.0541 73.6025 14.85H71.6025ZM72.4525 14H70.8505V16H72.4525V14ZM70.8505 14C70.9546 14 71.2164 14.0267 71.4451 14.2554C71.6738 14.4841 71.7005 14.7459 71.7005 14.85H69.7005C69.7005 15.0541 69.7522 15.3909 70.0309 15.6696C70.3095 15.9483 70.6463 16 70.8505 16V14ZM71.7005 14.85V10.152H69.7005V14.85H71.7005ZM71.7005 10.152C71.7005 9.91386 71.6403 9.55157 71.3446 9.25589C71.0489 8.96021 70.6866 8.9 70.4485 8.9V10.9C70.3783 10.9 70.142 10.8818 69.9304 10.6701C69.7187 10.4584 69.7005 10.2221 69.7005 10.152H71.7005ZM70.4485 8.9H69.6025V10.9H70.4485V8.9ZM68.6025 9.9V14.85H70.6025V9.9H68.6025ZM68.6025 14.85C68.6025 14.7459 68.6292 14.4841 68.8579 14.2554C69.0865 14.0267 69.3483 14 69.4525 14V16C69.6566 16 69.9934 15.9483 70.2721 15.6696C70.5508 15.3909 70.6025 15.0541 70.6025 14.85H68.6025ZM69.4525 14H67.8505V16H69.4525V14Z" fill="black" mask="url(#path-3-outside-1_1366_8984)"/>
<defs>
<filter id="filter0_d_1366_8984" x="0" y="0" width="93" height="32" filterUnits="userSpaceOnUse" color-interpolation-filters="sRGB">
<feFlood flood-opacity="0" result="BackgroundImageFix"/>
<feColorMatrix in="SourceAlpha" type="matrix" values="0 0 0 0 0 0 0 0 0 0 0 0 0 0 0 0 0 0 127 0" result="hardAlpha"/>
<feOffset dy="4"/>
<feGaussianBlur stdDeviation="2"/>
<feComposite in2="hardAlpha" operator="out"/>
<feColorMatrix type="matrix" values="0 0 0 0 0 0 0 0 0 0 0 0 0 0 0 0 0 0 0.25 0"/>
<feBlend mode="normal" in2="BackgroundImageFix" result="effect1_dropShadow_1366_8984"/>
<feBlend mode="normal" in="SourceGraphic" in2="effect1_dropShadow_1366_8984" result="shape"/>
</filter>
<linearGradient id="paint0_linear_1366_8984" x1="-13.0575" y1="10.7143" x2="106.002" y2="11.8863" gradientUnits="userSpaceOnUse">
<stop stop-color="#134769"/>
<stop offset="1" stop-color="#440808"/>
</linearGradient>
</defs>
</svg>
